<?xml version="1.0" encoding="utf-8"?>
<!-- Generator: Adobe Illustrator 25.4.1, SVG Export Plug-In . SVG Version: 6.00 Build 0)  -->
<svg version="1.1" id="Layer_1" xmlns="http://www.w3.org/2000/svg" xmlns:xlink="http://www.w3.org/1999/xlink" x="0px" y="0px"
	 viewBox="0 0 64 64" style="enable-background:new 0 0 64 64;" xml:space="preserve">
<style type="text/css">
	.st0{display:none;}
	.st1{display:inline;}
	.st2{fill:#456399;}
	.st3{fill:#E44D65;}
	.st4{fill:#EEAE1F;}
	.st5{fill:#ECC46C;}
	.st6{fill:#69A88D;}
	.st7{fill:#DB7489;}
	.st8{fill:#6487C5;}
	.st9{display:inline;fill:#456E5C;}
	.st10{fill:#FFFFFF;}
	.st11{fill:#986AA8;}
	.st12{display:inline;fill:#FFFFFF;}
</style>
<g class="st0">
	<g class="st1">
		<path class="st2" d="M47.6,15.1H41l-2.7,3.1l3.8,3.8c0.7-0.1,1.4-0.1,2.2-0.1c0.8,0,1.5,0,2.2,0.1l3.8-3.8L47.6,15.1z M44.3,21.5
			l-3.4-3.4l1-1.2h4.8l1,1.2L44.3,21.5z"/>
		<path class="st3" d="M23,15.1h-6.5l-2.7,3.1l3.8,3.8c0.7-0.1,1.4-0.1,2.2-0.1c0.7,0,1.5,0,2.2,0.1l3.8-3.8L23,15.1z M19.7,21.5
			l-3.4-3.4l1-1.2h4.8l1,1.2L19.7,21.5z"/>
		<path class="st4" d="M64,41.6c0,4.1-1.2,7.9-3.4,11c-0.3,0.5-0.7,1-1.1,1.5v0c-0.8,1-1.7,1.9-2.7,2.7c0,0,0,0,0,0
			c-0.5,0.4-1,0.8-1.5,1.1c-3.2,2.1-6.9,3.4-11,3.4c-0.6,0-1.1,0-1.7-0.1c-0.6,0-1.1-0.1-1.6-0.2c-0.5-0.1-0.9-0.2-1.4-0.3
			c-0.6-0.1-1.2-0.3-1.8-0.5c-0.4-0.1-0.8-0.3-1.2-0.4c-0.1,0-0.3-0.1-0.4-0.2c-0.5-0.2-1-0.5-1.4-0.7c-0.5-0.3-1-0.6-1.5-0.9
			c-0.4-0.2-0.8-0.5-1.1-0.8c0,0-0.1-0.1-0.2-0.1c0,0,0,0,0,0c-0.5-0.4-1-0.8-1.4-1.3c-0.4-0.4-0.9-0.9-1.3-1.3
			c-0.1-0.1-0.2-0.2-0.3-0.4c-0.4-0.5-0.8-1-1.1-1.6c-0.3-0.4-0.5-0.8-0.8-1.2c-0.1-0.2-0.2-0.4-0.3-0.6c-0.9-1.7-1.5-3.5-1.9-5.5
			c0-0.2-0.1-0.5-0.1-0.7c-0.1-0.4-0.1-0.8-0.1-1.3c0-0.5-0.1-1.1-0.1-1.6s0-1.1,0.1-1.6c0-0.7,0.1-1.4,0.3-2
			c0.1-0.8,0.3-1.5,0.6-2.2c0.1-0.5,0.3-0.9,0.5-1.3c0.3-0.8,0.7-1.7,1.2-2.5c0.2-0.4,0.5-0.8,0.7-1.2c0.1,0.1,0.2,0.2,0.3,0.2
			c0.4,0.3,0.7,0.6,1,0.9c0,0,0.1,0.1,0.1,0.1c-0.2,0.3-0.4,0.6-0.5,0.8c-0.4,0.7-0.8,1.5-1.1,2.3c-0.2,0.4-0.3,0.8-0.4,1.2
			c-0.2,0.7-0.4,1.3-0.5,2c-0.1,0.6-0.2,1.2-0.2,1.8c0,0.5-0.1,1-0.1,1.5s0,1,0.1,1.5c0,0.4,0,0.8,0.1,1.2c0,0.2,0.1,0.4,0.1,0.6
			c0.3,1.7,0.9,3.4,1.7,4.9c0.1,0.2,0.2,0.4,0.3,0.5c0.2,0.3,0.4,0.6,0.6,0.9c0,0.1,0.1,0.1,0.1,0.2c0.3,0.5,0.7,0.9,1,1.4l0,0
			c0.1,0.1,0.2,0.2,0.3,0.3c0.4,0.4,0.8,0.8,1.1,1.2c0,0,0.1,0.1,0.1,0.1c0.4,0.4,0.8,0.7,1.2,1c0,0,0,0,0,0c0,0,0.1,0.1,0.1,0.1
			c0,0,0.1,0.1,0.1,0.1c0.3,0.2,0.6,0.5,0.9,0.7c0.4,0.3,0.9,0.6,1.3,0.8c0.4,0.2,0.8,0.5,1.3,0.7c0.1,0.1,0.3,0.1,0.4,0.2
			c0.3,0.1,0.7,0.3,1.1,0.4c0.5,0.2,1.1,0.4,1.7,0.5c0.4,0.1,0.8,0.2,1.2,0.3c0.5,0.1,1,0.1,1.5,0.2c0.5,0,1,0.1,1.5,0.1
			c3.7,0,7.1-1.1,10-3.1c0.5-0.3,0.9-0.6,1.3-1c0,0,0,0,0,0c0.9-0.7,1.7-1.5,2.4-2.4v0c0.4-0.4,0.7-0.9,1-1.3
			c1.9-2.9,3.1-6.3,3.1-10c0-0.6,0-1.1-0.1-1.7c0-0.4-0.1-0.9-0.1-1.3c-0.2-1-0.4-2-0.8-2.9c0-0.2-0.1-0.4-0.2-0.6
			c-0.2-0.5-0.4-1-0.7-1.5c-0.4-0.9-1-1.7-1.5-2.5c-0.2-0.3-0.4-0.6-0.6-0.8c-0.2-0.2-0.4-0.4-0.6-0.7c-0.3-0.4-0.7-0.7-1.1-1.1
			c-0.4-0.4-0.8-0.7-1.2-1c-0.4-0.3-0.8-0.7-1.3-0.9c-0.4-0.3-0.9-0.6-1.4-0.8c-0.3-0.1-0.5-0.3-0.8-0.4c-0.2-0.1-0.5-0.2-0.7-0.3
			c-0.5-0.2-1-0.4-1.5-0.5c-0.6-0.2-1.3-0.4-2-0.5c-0.5-0.1-0.9-0.2-1.4-0.2c-0.6-0.1-1.3-0.1-2-0.1c-0.7,0-1.3,0-1.9,0.1
			c-0.4,0-0.7,0.1-1.1,0.1c-0.9,0.1-1.7,0.4-2.6,0.7c-0.2,0.1-0.4,0.1-0.6,0.2c-0.2,0.1-0.5,0.2-0.7,0.3c-0.5,0.2-1,0.5-1.5,0.8
			c-0.7,0.4-1.3,0.8-1.9,1.2c-0.1,0.1-0.3,0.2-0.4,0.3c-0.5-0.4-0.9-0.8-1.4-1.3c0,0,0.1-0.1,0.1-0.1c0.2-0.2,0.4-0.3,0.6-0.5
			c0.7-0.5,1.4-0.9,2.2-1.4c0.6-0.3,1.1-0.6,1.7-0.8c0.3-0.1,0.5-0.2,0.8-0.3c0.2-0.1,0.4-0.1,0.7-0.2c0.9-0.3,1.9-0.6,2.9-0.7
			c0.4-0.1,0.8-0.1,1.2-0.2c0.7-0.1,1.4-0.1,2.2-0.1c0.8,0,1.5,0,2.2,0.1c0.5,0.1,1,0.1,1.5,0.2c0.8,0.1,1.5,0.3,2.2,0.5
			c0.5,0.2,1.1,0.4,1.6,0.6c0.2,0.1,0.5,0.2,0.8,0.3c0.3,0.1,0.6,0.3,0.9,0.4c0.5,0.3,1,0.6,1.5,0.9c0.5,0.3,1,0.7,1.5,1
			c0.5,0.3,0.9,0.7,1.4,1.1c0.4,0.4,0.8,0.8,1.2,1.2c0.2,0.2,0.4,0.5,0.6,0.7c0.2,0.3,0.5,0.6,0.7,0.9c0.7,0.9,1.2,1.8,1.7,2.8
			c0.3,0.5,0.5,1.1,0.7,1.6c0.1,0.2,0.2,0.4,0.2,0.6c0.4,1,0.7,2.1,0.8,3.2c0,0.5,0.1,0.9,0.2,1.4C64,40.4,64,41,64,41.6z"/>
		<path class="st5" d="M59.8,41.6c0,3.2-1,6.2-2.6,8.7c-0.3,0.4-0.6,0.8-0.9,1.2c-0.6,0.8-1.3,1.5-2.1,2.1c-0.4,0.3-0.8,0.6-1.2,0.9
			c-2.5,1.7-5.5,2.6-8.7,2.6c-0.4,0-0.9,0-1.3,0c-0.4,0-0.9-0.1-1.3-0.2c-0.4-0.1-0.7-0.1-1.1-0.2c-0.5-0.1-1-0.2-1.4-0.4
			c-0.3-0.1-0.6-0.2-0.9-0.3c-0.1,0-0.2-0.1-0.3-0.2c-0.4-0.2-0.8-0.4-1.1-0.6c-0.4-0.2-0.8-0.5-1.2-0.7c-0.2-0.1-0.4-0.3-0.6-0.4
			c-0.1-0.1-0.2-0.1-0.2-0.2c0,0-0.1-0.1-0.1-0.1c0,0,0,0,0,0c-0.4-0.3-0.7-0.6-1-0.9c0,0-0.1-0.1-0.1-0.1c-0.3-0.3-0.7-0.7-1-1
			c-0.1-0.1-0.2-0.2-0.3-0.3c-0.1-0.1-0.2-0.2-0.2-0.3c-0.2-0.3-0.4-0.6-0.6-0.9c-0.2-0.3-0.4-0.6-0.5-0.8c0,0-0.1-0.1-0.1-0.1
			c-0.1-0.1-0.2-0.3-0.2-0.4c-0.7-1.3-1.2-2.8-1.5-4.3c0-0.2-0.1-0.4-0.1-0.6c0-0.3-0.1-0.7-0.1-1c0-0.4,0-0.8,0-1.3
			c0-0.4,0-0.8,0-1.3c0-0.5,0.1-1.1,0.2-1.6c0.1-0.6,0.2-1.2,0.4-1.7c0.1-0.4,0.2-0.7,0.4-1c0.3-0.7,0.6-1.3,0.9-2
			c0,0,0-0.1,0.1-0.1c0,0,0.1,0.1,0.1,0.2c0.4,0.5,0.7,1.1,1,1.7c0,0,0,0,0,0c-0.1,0.3-0.3,0.5-0.4,0.8c-0.1,0.3-0.2,0.6-0.3,0.9
			c-0.2,0.5-0.3,1-0.4,1.5c-0.1,0.4-0.2,0.9-0.2,1.4c0,0.4,0,0.7,0,1.1c0,0.4,0,0.8,0,1.1c0,0.3,0,0.6,0.1,0.9c0,0.2,0,0.3,0.1,0.5
			c0.2,1.2,0.6,2.3,1.1,3.3c0.1,0.2,0.1,0.3,0.2,0.5c0,0.1,0.1,0.3,0.2,0.4c0.1,0.3,0.3,0.6,0.5,0.8c0,0.1,0.1,0.2,0.2,0.2
			c0.2,0.3,0.4,0.6,0.6,0.8c0.1,0.1,0.1,0.2,0.2,0.3c0.2,0.3,0.5,0.5,0.8,0.8c0,0,0.1,0.1,0.1,0.1c0.3,0.3,0.6,0.6,1,0.9
			c0,0,0.1,0.1,0.1,0.1c0.1,0,0.1,0.1,0.2,0.1c0.2,0.1,0.4,0.3,0.6,0.4c0.3,0.2,0.7,0.4,1,0.6c0.3,0.2,0.7,0.3,1,0.5
			c0.1,0,0.2,0.1,0.3,0.1c0.3,0.1,0.5,0.2,0.8,0.3c0.4,0.1,0.8,0.3,1.3,0.4c0.3,0.1,0.6,0.2,0.9,0.2c0.4,0,0.8,0.1,1.1,0.1
			c0.4,0,0.8,0,1.1,0c2.8,0,5.4-0.8,7.6-2.3c0.3-0.2,0.7-0.5,1-0.8c0,0,0,0,0,0c0.7-0.6,1.3-1.2,1.8-1.8c0,0,0,0,0,0
			c0.3-0.3,0.5-0.7,0.8-1c1.5-2.2,2.3-4.8,2.3-7.6c0-0.4,0-0.9-0.1-1.3c0-0.3-0.1-0.7-0.1-1c-0.1-0.8-0.3-1.5-0.6-2.2
			c0-0.1-0.1-0.3-0.2-0.4c-0.1-0.4-0.3-0.8-0.5-1.1c-0.3-0.7-0.8-1.3-1.2-1.9c-0.2-0.2-0.3-0.4-0.5-0.6c-0.1-0.2-0.3-0.3-0.4-0.5
			c-0.3-0.3-0.5-0.6-0.8-0.8c-0.3-0.3-0.6-0.6-0.9-0.8c-0.3-0.2-0.7-0.5-1-0.7c-0.3-0.2-0.7-0.4-1-0.6c-0.2-0.1-0.4-0.2-0.6-0.3
			c-0.2-0.1-0.3-0.1-0.5-0.2c-0.4-0.1-0.8-0.3-1.1-0.4c-0.5-0.2-1-0.3-1.5-0.4c-0.4-0.1-0.7-0.1-1.1-0.2c-0.5,0-1-0.1-1.5-0.1
			c-0.5,0-1,0-1.5,0.1c-0.3,0-0.6,0.1-0.8,0.1c-0.7,0.1-1.3,0.3-2,0.5c-0.1,0-0.3,0.1-0.5,0.1C39.4,29,39.2,29,39,29.1
			c-0.4,0.2-0.8,0.4-1.2,0.6c-0.5,0.3-1,0.6-1.5,0.9c-0.1,0-0.1,0.1-0.2,0.1c-0.3-0.5-0.7-1-1.1-1.5c0.1,0,0.1-0.1,0.2-0.1
			c0.6-0.4,1.1-0.8,1.7-1.1c0.4-0.2,0.9-0.5,1.4-0.7c0.2-0.1,0.4-0.2,0.6-0.2c0.2,0,0.3-0.1,0.5-0.2c0.7-0.2,1.5-0.4,2.3-0.6
			c0.3,0,0.6-0.1,0.9-0.1c0.6,0,1.1-0.1,1.7-0.1c0.6,0,1.2,0,1.7,0.1c0.4,0,0.8,0.1,1.2,0.2c0.6,0.1,1.2,0.2,1.7,0.4
			c0.4,0.1,0.8,0.3,1.3,0.5c0.2,0.1,0.4,0.1,0.6,0.2c0.2,0.1,0.4,0.2,0.7,0.3c0.4,0.2,0.8,0.4,1.2,0.7c0.4,0.2,0.8,0.5,1.2,0.8
			c0.4,0.3,0.7,0.6,1.1,0.9c0.3,0.3,0.6,0.6,0.9,0.9c0.2,0.2,0.3,0.4,0.5,0.6c0.2,0.2,0.4,0.5,0.6,0.7c0.5,0.7,1,1.5,1.3,2.2
			c0.2,0.4,0.4,0.8,0.6,1.3c0,0.2,0.1,0.3,0.2,0.5c0.3,0.8,0.5,1.7,0.7,2.5c0,0.4,0.1,0.8,0.1,1.1C59.8,40.6,59.8,41.1,59.8,41.6z"
			/>
		<path class="st4" d="M39.4,41.6c0,0.6,0,1.1-0.1,1.6c0,0.4-0.1,0.8-0.1,1.3c0,0.2-0.1,0.5-0.1,0.7L39,45.6c0,0.3-0.1,0.7-0.2,1
			c-0.1,0.3-0.2,0.6-0.3,0.9c-0.2,0.6-0.4,1.2-0.7,1.8c-0.1,0.3-0.2,0.6-0.4,0.9c-0.2,0.4-0.4,0.7-0.6,1.1c-0.2,0.4-0.5,0.8-0.8,1.2
			c-0.1,0-0.1-0.1-0.2-0.1c0,0-0.1,0-0.1-0.1c-0.4-0.3-0.7-0.6-1-0.9c0,0-0.1-0.1-0.1-0.1c0.2-0.3,0.4-0.6,0.5-0.9
			c0.2-0.3,0.3-0.7,0.5-1c0.1-0.3,0.2-0.5,0.3-0.8c0.2-0.5,0.4-1.1,0.6-1.6c0.1-0.3,0.2-0.6,0.2-0.8c0.1-0.3,0.1-0.6,0.2-0.9l0-0.3
			c0-0.2,0.1-0.4,0.1-0.6c0.1-0.4,0.1-0.8,0.1-1.2c0-0.5,0.1-1,0.1-1.5s0-1-0.1-1.5c0-0.7-0.1-1.3-0.3-1.9c0-0.1,0-0.1,0-0.2
			c0-0.3-0.1-0.6-0.2-0.8c-0.1-0.3-0.2-0.6-0.2-0.9c-0.5-1.5-1.2-3-2-4.3c0-0.1-0.1-0.1-0.1-0.2c-0.3-0.5-0.6-0.9-1-1.3c0,0,0,0,0,0
			c-0.5-0.5-0.9-1-1.4-1.6c0,0-0.1-0.1-0.1-0.1c-0.4-0.4-0.8-0.7-1.2-1c0,0,0,0,0,0c-0.1-0.1-0.1-0.1-0.2-0.2
			c-0.2-0.2-0.5-0.4-0.7-0.5c-0.5-0.3-0.9-0.6-1.4-0.8c-0.3-0.2-0.6-0.3-0.9-0.5c-0.4-0.2-0.7-0.4-1.1-0.5c-0.4-0.2-0.8-0.3-1.2-0.4
			c-0.8-0.3-1.7-0.5-2.6-0.7C22.4,24,22,24,21.6,23.9c-0.6-0.1-1.3-0.1-1.9-0.1c-0.7,0-1.3,0-2,0.1c-0.5,0-1,0.1-1.5,0.2
			c-0.1,0-0.2,0-0.3,0.1c-0.5,0.1-1,0.2-1.4,0.4h-0.1c-0.5,0.2-1,0.3-1.5,0.5c-0.5,0.2-1,0.4-1.5,0.7c-0.5,0.2-0.9,0.5-1.3,0.8
			c0,0-0.1,0-0.1,0.1c-0.4,0.3-0.8,0.6-1.2,0.9c-0.2,0.1-0.3,0.2-0.4,0.3c-0.3,0.2-0.5,0.5-0.8,0.7c-0.3,0.4-0.7,0.7-1.1,1.1
			c-0.2,0.2-0.4,0.5-0.6,0.7c-0.5,0.6-1,1.3-1.4,1.9c0,0,0,0.1-0.1,0.1c-0.3,0.4-0.5,0.8-0.7,1.3c-0.2,0.5-0.5,1-0.7,1.5
			c-0.2,0.4-0.3,0.8-0.4,1.2c-0.2,0.6-0.3,1.1-0.4,1.7c0,0.2,0,0.3-0.1,0.5C2.1,39,2,39.5,2,39.9c-0.1,0.6-0.1,1.1-0.1,1.7
			c0,3.7,1.1,7.1,3.1,10c0.3,0.5,0.7,0.9,1,1.3v0c0.7,0.9,1.5,1.7,2.4,2.4c0,0,0,0,0,0c0.4,0.3,0.9,0.7,1.4,1
			c2.8,1.9,6.2,3.1,10,3.1c0.5,0,1,0,1.5-0.1c0.5,0,1-0.1,1.5-0.2c0.4-0.1,0.8-0.1,1.2-0.3c0.2,0,0.3,0,0.5-0.1
			c0.4-0.1,0.8-0.2,1.2-0.4c0.4-0.1,0.7-0.2,1-0.4c0.2-0.1,0.4-0.1,0.5-0.2c0.8-0.4,1.6-0.8,2.4-1.3c0,0,0.1,0,0.1-0.1
			c0.3-0.2,0.6-0.4,0.9-0.7c0.5,0.5,0.9,0.9,1.4,1.3c-0.4,0.3-0.8,0.6-1.3,0.9c0,0-0.1,0-0.1,0.1c-0.8,0.6-1.7,1.1-2.6,1.5
			c-0.2,0.1-0.4,0.2-0.6,0.3c-0.4,0.2-0.8,0.3-1.1,0.4c-0.4,0.1-0.9,0.3-1.3,0.4c-0.2,0-0.3,0.1-0.5,0.1C23.9,60.9,23.5,61,23,61
			c-0.5,0.1-1.1,0.2-1.6,0.2c-0.6,0-1.1,0.1-1.7,0.1c-4.1,0-7.9-1.2-11-3.4c-0.5-0.4-1-0.8-1.5-1.1c0,0,0,0,0,0
			c-1-0.8-1.9-1.7-2.7-2.7v0c-0.4-0.5-0.8-1-1.1-1.5C1.2,49.5,0,45.7,0,41.6c0-0.6,0-1.3,0.1-1.9c0-0.5,0.1-1,0.2-1.5
			c0-0.2,0.1-0.4,0.1-0.6c0.1-0.6,0.3-1.3,0.5-1.9c0.1-0.5,0.3-0.9,0.5-1.3c0.2-0.6,0.5-1.1,0.7-1.6c0.2-0.5,0.5-0.9,0.8-1.4
			c0,0,0-0.1,0.1-0.1c0.5-0.8,1-1.5,1.5-2.2c0.2-0.2,0.4-0.5,0.6-0.7c0.4-0.4,0.8-0.8,1.2-1.2c0.3-0.2,0.6-0.5,0.9-0.8
			c0.2-0.1,0.3-0.3,0.5-0.4c0.4-0.3,0.9-0.7,1.4-1c0,0,0.1-0.1,0.1-0.1c0.5-0.3,0.9-0.6,1.5-0.8c0.5-0.3,1.1-0.5,1.6-0.8
			c0.5-0.2,1-0.4,1.6-0.6c0,0,0.1,0,0.1,0c0.5-0.2,1-0.3,1.6-0.4c0.1,0,0.2,0,0.3-0.1c0.6-0.1,1.1-0.2,1.7-0.3
			c0.7-0.1,1.4-0.1,2.2-0.1c0.7,0,1.5,0,2.2,0.1c0.4,0,0.8,0.1,1.2,0.2c1,0.2,1.9,0.4,2.9,0.7c0.4,0.1,0.9,0.3,1.3,0.5
			c0.4,0.2,0.8,0.4,1.3,0.6c0.3,0.2,0.6,0.3,0.9,0.5c0.5,0.3,1,0.6,1.5,0.9c0.4,0.3,0.7,0.5,1.1,0.8c0,0,0,0,0,0
			c0.5,0.4,1,0.8,1.4,1.3c0.6,0.6,1.1,1.1,1.6,1.7c0.4,0.5,0.8,1,1.1,1.5c1,1.5,1.8,3.2,2.4,5c0.1,0.3,0.2,0.6,0.3,0.9
			c0.1,0.3,0.2,0.6,0.2,0.9c0,0.1,0,0.1,0,0.2c0.1,0.7,0.2,1.4,0.3,2.1C39.4,40.5,39.4,41.1,39.4,41.6z"/>
		<path class="st5" d="M35.2,41.6c0,0.4,0,0.9,0,1.3c0,0.3-0.1,0.7-0.1,1c0,0.2,0,0.4-0.1,0.5l0,0.3c0,0.3-0.1,0.5-0.2,0.8
			c-0.1,0.2-0.1,0.5-0.2,0.7c-0.1,0.5-0.3,1-0.5,1.4c-0.1,0.2-0.2,0.5-0.3,0.7c-0.1,0.3-0.3,0.6-0.5,0.8c0,0-0.1,0.1-0.1,0.2
			c0-0.1-0.1-0.2-0.2-0.2c-0.2-0.3-0.4-0.6-0.5-0.8c-0.1-0.1-0.1-0.2-0.2-0.4c-0.1-0.1-0.2-0.3-0.2-0.5c0.1-0.2,0.1-0.3,0.2-0.5
			c0.2-0.4,0.3-0.8,0.4-1.3c0.1-0.2,0.1-0.4,0.2-0.6c0.1-0.2,0.1-0.4,0.1-0.7l0-0.2c0-0.2,0.1-0.3,0.1-0.5c0-0.3,0.1-0.6,0.1-0.9
			c0-0.4,0-0.7,0-1.1c0-0.4,0-0.8,0-1.1c0-0.5-0.1-1-0.2-1.5c0,0,0-0.1,0-0.1c0-0.2-0.1-0.4-0.1-0.7c0-0.2-0.1-0.4-0.2-0.7
			c-0.2-0.6-0.4-1.2-0.7-1.7c0,0,0,0,0,0c-0.3-0.6-0.6-1.2-1-1.7c0-0.1-0.1-0.1-0.1-0.2v0c-0.2-0.3-0.4-0.6-0.6-0.8
			c-0.3-0.4-0.6-0.7-1-1c0,0-0.1-0.1-0.1-0.1c-0.3-0.3-0.6-0.6-1-0.9c-0.1-0.1-0.2-0.2-0.3-0.2c-0.1-0.1-0.3-0.2-0.4-0.3
			c-0.3-0.2-0.7-0.4-1-0.6c-0.2-0.1-0.4-0.2-0.7-0.3c-0.3-0.1-0.6-0.3-0.9-0.4c-0.3-0.1-0.6-0.2-0.9-0.3c-0.6-0.2-1.3-0.4-2-0.5
			c-0.3,0-0.6-0.1-0.8-0.1c-0.5,0-1-0.1-1.5-0.1c-0.5,0-1,0-1.5,0.1c-0.4,0.1-0.8,0.1-1.2,0.2c-0.1,0-0.1,0-0.2,0
			c-0.4,0.1-0.7,0.2-1.1,0.3c0,0-0.1,0-0.1,0c-0.4,0.1-0.8,0.2-1.1,0.4c-0.4,0.1-0.8,0.3-1.1,0.5c-0.3,0.2-0.7,0.4-1,0.6
			c0,0-0.1,0-0.1,0.1c-0.3,0.2-0.6,0.4-0.9,0.7C11.3,31,11.2,31,11,31.1c-0.2,0.2-0.4,0.4-0.6,0.5c-0.3,0.3-0.5,0.5-0.8,0.8
			c-0.1,0.2-0.3,0.3-0.4,0.5c-0.4,0.5-0.8,1-1.1,1.5c0,0,0,0-0.1,0.1c-0.2,0.3-0.4,0.6-0.5,1c-0.2,0.4-0.3,0.8-0.5,1.1
			c-0.1,0.3-0.2,0.6-0.3,0.9c-0.1,0.4-0.3,0.9-0.3,1.3c0,0.1,0,0.2-0.1,0.4c0,0.3-0.1,0.7-0.1,1.1c0,0.4-0.1,0.8-0.1,1.3
			c0,2.8,0.8,5.4,2.3,7.6c0.2,0.3,0.5,0.7,0.8,1c0,0,0,0,0,0c0.6,0.7,1.2,1.3,1.8,1.8h0c0.3,0.3,0.7,0.5,1,0.8
			c2.2,1.5,4.8,2.3,7.6,2.3c0.4,0,0.8,0,1.1,0c0.4,0,0.8-0.1,1.1-0.1c0.3,0,0.7-0.1,0.9-0.2c0.1,0,0.2,0,0.4-0.1
			c0.3-0.1,0.6-0.2,0.9-0.3c0.3-0.1,0.5-0.2,0.8-0.3c0.1,0,0.3-0.1,0.4-0.2c0.6-0.3,1.2-0.6,1.8-1c0,0,0.1,0,0.1,0
			c0.2-0.1,0.4-0.3,0.6-0.4c0.3,0.5,0.7,1.1,1.1,1.6c-0.2,0.2-0.4,0.3-0.6,0.5c0,0-0.1,0-0.1,0c-0.7,0.4-1.4,0.8-2.1,1.2
			c-0.1,0.1-0.3,0.1-0.5,0.2c-0.3,0.1-0.6,0.2-0.9,0.3c-0.3,0.1-0.7,0.2-1,0.3c-0.1,0-0.3,0.1-0.4,0.1c-0.3,0.1-0.7,0.2-1.1,0.2
			C21.9,57,21.5,57,21,57.1c-0.4,0-0.9,0-1.3,0c-3.2,0-6.2-1-8.7-2.6c-0.4-0.3-0.8-0.6-1.2-0.9h0c-0.8-0.6-1.5-1.4-2.1-2.1
			c0,0,0,0,0,0c-0.3-0.4-0.6-0.8-0.9-1.2c-1.7-2.5-2.6-5.5-2.6-8.7c0-0.5,0-1,0.1-1.5c0-0.4,0.1-0.8,0.1-1.2c0-0.1,0.1-0.3,0.1-0.4
			c0.1-0.5,0.2-1,0.4-1.5c0.1-0.4,0.2-0.7,0.4-1c0.2-0.4,0.4-0.9,0.6-1.3c0.2-0.4,0.4-0.8,0.6-1.1c0,0,0-0.1,0.1-0.1
			c0.4-0.6,0.8-1.2,1.2-1.7c0.2-0.2,0.3-0.4,0.5-0.6c0.3-0.3,0.6-0.6,0.9-0.9c0.2-0.2,0.5-0.4,0.7-0.6c0.1-0.1,0.2-0.2,0.4-0.3
			c0.3-0.3,0.7-0.5,1.1-0.8c0,0,0.1,0,0.1-0.1c0.4-0.2,0.8-0.5,1.2-0.7c0.4-0.2,0.8-0.4,1.3-0.6c0.4-0.2,0.8-0.3,1.3-0.5
			c0,0,0.1,0,0.1,0c0.4-0.1,0.8-0.2,1.2-0.3c0.1,0,0.1,0,0.2,0c0.4-0.1,0.9-0.2,1.3-0.2c0.6,0,1.1-0.1,1.7-0.1c0.6,0,1.1,0,1.7,0.1
			c0.3,0,0.6,0.1,0.9,0.1c0.8,0.1,1.5,0.3,2.3,0.6c0.3,0.1,0.7,0.2,1,0.4c0.3,0.1,0.7,0.3,1,0.4c0.2,0.1,0.5,0.2,0.8,0.4
			c0.4,0.2,0.8,0.5,1.2,0.7c0.2,0.1,0.3,0.2,0.5,0.4c0.1,0.1,0.3,0.2,0.4,0.3c0,0,0,0,0,0c0.4,0.3,0.7,0.6,1,0.9c0,0,0,0,0.1,0.1
			c0.4,0.4,0.8,0.9,1.2,1.4c0.1,0.1,0.2,0.2,0.3,0.3c0.2,0.3,0.4,0.6,0.6,0.9c0.2,0.3,0.3,0.5,0.5,0.8c0.6,1,1,2,1.4,3.1
			c0.1,0.2,0.1,0.5,0.2,0.7c0.1,0.3,0.1,0.5,0.2,0.8c0,0,0,0.1,0,0.2c0.1,0.6,0.2,1.1,0.2,1.7C35.2,40.8,35.2,41.2,35.2,41.6z"/>
	</g>
	<g class="st1">
		<g>
			<rect x="31" y="2.7" class="st6" width="1.9" height="5.9"/>
		</g>
	</g>
	<g class="st1">
		<g>
			
				<rect x="36.9" y="6.5" transform="matrix(0.4198 -0.9076 0.9076 0.4198 16.3222 40.4898)" class="st7" width="5.9" height="1.9"/>
		</g>
	</g>
	<g class="st1">
		<g>
			<rect x="23.2" y="4.5" transform="matrix(0.9076 -0.4198 0.4198 0.9076 -0.907 10.8359)" class="st8" width="1.9" height="5.9"/>
		</g>
	</g>
</g>
<g class="st0">
	<path class="st9" d="M47,14.8c0.6-0.2,1.1-0.4,1.6-0.8C48.1,14.3,47.6,14.6,47,14.8z M18,8.4C18,8.4,18,8.4,18,8.4
		c0,0-0.1,0.1-0.1,0.1C17.9,8.5,18,8.5,18,8.4z M28.5,7.6c-0.1,0-0.3,0-0.4,0.1C28.3,7.6,28.4,7.6,28.5,7.6z M28.5,7.6
		c0.1,0,0.2,0,0.3,0C28.7,7.6,28.6,7.6,28.5,7.6z M28.9,7.6C28.8,7.6,28.8,7.6,28.9,7.6c0,0,0.1,0,0.2,0C29,7.6,28.9,7.6,28.9,7.6z
		 M27.5,7.9L27.5,7.9L27.5,7.9l0.1,0C27.6,7.8,27.6,7.9,27.5,7.9C27.5,7.9,27.5,7.9,27.5,7.9z M26.6,7.6c0.3,0,0.6,0.1,0.8,0.2
		l0.1,0c0,0,0,0,0,0C27.2,7.7,26.9,7.6,26.6,7.6z M25.8,7.7c0.1,0,0.3,0,0.5,0c0.1,0,0.2,0,0.3,0C26.3,7.6,26.1,7.6,25.8,7.7z
		 M34.9,7.6c0.1,0,0.2,0,0.2,0c0.1,0,0.2,0,0.3,0C35.3,7.6,35.1,7.6,34.9,7.6z M33.6,8.1c0.2-0.2,0.5-0.3,0.8-0.4
		C34.1,7.8,33.9,7.9,33.6,8.1L33.6,8.1z M50.4,12.1c0.1-0.1,0.1-0.2,0.2-0.3c0.1-0.1,0.1-0.2,0.2-0.3c0.1-0.2,0.1-0.3,0.2-0.5
		c0-0.1,0-0.2,0.1-0.2c0.2-0.5,0.2-1.1,0.2-1.7V5.5c0-0.1,0-0.2,0-0.3c0-0.2-0.1-0.5-0.2-0.9c0-0.1-0.1-0.2-0.2-0.3c0,0,0,0,0,0
		c-0.1-0.2-0.3-0.4-0.5-0.6C50,3.2,49.8,3,49.6,2.9c0,0-0.1,0-0.2-0.1c0,0-0.1,0-0.1-0.1c-0.1,0-0.2-0.1-0.3-0.1
		c-0.2,0-0.4-0.1-0.6-0.1c-0.5,0-1,0.1-1.4,0.4c-0.1,0-0.2,0.1-0.2,0.1c-0.1,0-0.1,0.1-0.2,0.2l-0.6,0.5l-0.7,0.6l-1.3-1.1
		c-0.1-0.1-0.1-0.1-0.2-0.2c0,0,0,0,0,0c-0.2-0.1-0.5-0.3-0.7-0.3c-0.2-0.1-0.3-0.1-0.5-0.1c-0.1,0-0.2,0-0.3,0c-0.1,0-0.3,0-0.4,0
		c-0.1,0-0.2,0-0.3,0c-0.1,0-0.2,0.1-0.3,0.1c-0.1,0-0.2,0.1-0.3,0.1h0l0,0h0c-0.1,0-0.2-0.1-0.3-0.1c-0.1,0-0.2-0.1-0.3-0.1
		c-0.1,0-0.2,0-0.3,0c-0.1,0-0.2,0-0.3,0c-0.1,0-0.2,0-0.3,0c-0.1,0-0.2,0-0.3,0c-0.1,0-0.2,0-0.2,0.1c-0.3,0.1-0.5,0.2-0.8,0.4
		c-0.1,0-0.1,0.1-0.2,0.2l-0.6,0.5l-0.7,0.6l-1.3-1.1c-0.1-0.1-0.1-0.1-0.2-0.2c0,0,0,0,0,0c-0.2-0.1-0.5-0.3-0.7-0.3
		c-0.2-0.1-0.3-0.1-0.5-0.1c-0.1,0-0.2,0-0.3,0s-0.2,0-0.3,0c-0.1,0-0.2,0-0.3,0c-0.2,0-0.4,0.1-0.6,0.2c0,0,0,0,0,0c0,0,0,0,0,0
		c-0.3-0.1-0.6-0.2-0.9-0.3c-0.1,0-0.2,0-0.3,0c-0.3,0-0.5,0-0.8,0.1c-0.1,0-0.1,0-0.2,0.1c-0.3,0.1-0.6,0.3-0.9,0.5l-1.2,1
		l-0.1,0.1l0,0l-1.3-1.1C26.1,3.2,26,3.1,25.8,3c-0.1,0-0.2-0.1-0.2-0.1c0,0,0,0,0,0c-0.1-0.1-0.3-0.1-0.4-0.2
		c-0.2-0.1-0.5-0.1-0.7-0.1c-0.3,0-0.5,0-0.8,0.1c-0.1,0-0.2,0-0.2,0.1c-0.1,0-0.2,0.1-0.3,0.1h0c0,0-0.1-0.1-0.1-0.1
		c-0.3-0.1-0.5-0.2-0.8-0.2c-0.1,0-0.2,0-0.3,0c-0.1,0-0.2,0-0.3,0c-0.1,0-0.2,0-0.3,0c-0.1,0-0.2,0-0.2,0.1
		c-0.3,0.1-0.5,0.2-0.8,0.4c-0.1,0-0.1,0.1-0.2,0.2l-0.6,0.5l-0.7,0.6l-1.3-1.1c0,0-0.1-0.1-0.1-0.1c-0.5-0.4-1.1-0.6-1.7-0.6h-0.1
		c-0.1,0-0.1,0-0.2,0c-0.1,0-0.2,0-0.3,0c-0.1,0-0.2,0.1-0.3,0.1c-0.1,0-0.2,0.1-0.3,0.1C14.2,3,14.1,3.1,14,3.1
		c-0.1,0-0.2,0.1-0.2,0.2c-0.2,0.2-0.4,0.4-0.5,0.6c-0.1,0.1-0.1,0.2-0.2,0.2c0,0,0,0,0,0c0,0.1-0.1,0.2-0.1,0.2
		c0,0.1-0.1,0.2-0.1,0.3c0,0.1-0.1,0.3-0.1,0.4s0,0.3,0,0.4V9c0,0.1,0,0.2,0,0.4c0,0,0,0,0,0c0,0,0,0,0,0c0,0.1,0,0.2,0,0.3
		c0,0,0,0,0,0.1c0,0.2,0.1,0.4,0.1,0.6c0.1,0.5,0.3,1,0.5,1.4c0,0.1,0.1,0.1,0.1,0.2c-1.6,1.6-2.2,9.6-0.3,16.4
		c1.1,4.2,3,7.9,5.6,11c2.8,3.4,6.4,6.1,10.8,8.1c-1.1,0.7-2,1.4-2.8,2.4c0,0,0,0,0,0l0,0v0l0,0c0,0,0,0,0,0c0,0,0,0,0,0
		c0,0,0,0.1-0.1,0.2l0,0c-0.1,0.4,0,0.8,0.3,1c0.4,0.4,1,0.3,1.4-0.1c0.8-1,1.9-1.8,3.2-2.4c0.5,1,1.3,2.9,1.8,5.2
		c0.1,0.5,0.5,0.8,0.9,0.8c0.1,0,0.2,0,0.2,0c0.5-0.1,0.9-0.6,0.7-1.2c-0.3-1.5-0.8-2.9-1.2-3.9c1.7,1.2,2.9,2.9,3.4,5
		c0.4,1.5,0.4,3,0.4,3.7c-0.7,0.2-1.4,0.4-2,0.6c0-0.4,0-0.9,0-1.4c0-0.5-0.5-0.9-1-0.9c-0.5,0-0.9,0.5-0.9,1c0,0.5,0,1,0,1.6
		c-2.5,0.3-5.2,0-7.6-0.9c0-0.9,0-2.7,0.7-4.5c0.2-0.5-0.1-1.1-0.6-1.3c-0.4-0.1-0.8,0-1.1,0.3L25,53.2c-0.6,1.6-0.8,3.2-0.8,4.2
		c0,0.5,0,0.9,0,1.3c0,0.6,0.1,0.7,0.2,0.9c0.1,0.2,0.3,0.3,0.4,0.3c2.3,0.9,4.7,1.3,7.1,1.3c2.4,0,4.8-0.4,7.1-1.3
		c0.3-0.1,0.6-0.4,0.6-0.8c0-0.1,0.4-2.3-0.4-5c-0.6-2.1-1.9-4.8-4.9-6.6c11.7-5.3,15.8-14.8,17-22.1l0-0.2c0-0.5-0.3-0.9-0.8-0.9
		c-0.5-0.1-1,0.3-1.1,0.8c-1.2,7-5.2,16.4-17.2,21.2c-4.2-5.1-5.4-11.1-5.7-15.2c0-0.5-0.5-0.9-1-0.9c-0.5,0-0.9,0.5-0.9,1
		c0.2,3.8,1.2,9,4.3,13.9c-3.4-1.8-6.3-4.1-8.6-6.8c-2.4-2.9-4.1-6.4-5.2-10.3c-0.9-3.5-1.2-6.7-1.2-9c1,1,2.5,2,4.4,2.8
		c2,0.8,4.3,1.5,6.8,1.9c-0.2,0.9-0.4,2.3-0.5,4.2c0,0.5,0.4,1,0.9,1c0,0,0,0,0.1,0c0.5,0,0.9-0.4,1-0.9c0.1-1.8,0.3-3.2,0.4-4
		c1.6,0.2,3.2,0.3,4.9,0.3c5.1,0,10-0.8,13.7-2.4c1.9-0.8,3.4-1.7,4.4-2.8c0,0.9,0,2-0.1,3.2c0,0.5,0.4,1,0.9,1.1h0.1
		c0.4,0,0.8-0.3,0.9-0.7l0-0.2C52.2,18.5,52,14.1,50.4,12.1z M42.6,4.8l1.9,1.6c0.4,0.3,0.9,0.3,1.3,0l1.9-1.6
		c0.1-0.1,0.2-0.1,0.3-0.2c0,0,0.1,0,0.1,0c0,0,0,0,0,0c0.2,0,0.4,0,0.5,0.1c0.1,0,0.5,0.3,0.5,0.8V9c0,0.6-0.1,1.2-0.4,1.7
		c-0.1,0.2-0.1,0.3-0.2,0.5c-0.1,0.2-0.2,0.3-0.3,0.4c-0.1,0.1-0.2,0.2-0.3,0.3c-0.2,0.2-0.4,0.4-0.6,0.5c-0.2,0.2-0.5,0.3-0.7,0.4
		v-2.3c0-0.1,0-0.2,0-0.3c0-0.1,0-0.2-0.1-0.3c-0.1-0.5-0.3-0.9-0.6-1.2c0-0.1-0.1-0.1-0.2-0.2c-0.1-0.1-0.2-0.2-0.3-0.3
		c-0.1,0-0.1-0.1-0.2-0.1c-0.1,0-0.1-0.1-0.2-0.1l-0.1,0c-0.4-0.2-0.8-0.2-1.1-0.2c-0.3,0-0.7,0.1-1,0.2c-0.2,0.1-0.4,0.1-0.6,0.3
		V5.5c0-0.2,0-0.5-0.2-0.9C42.4,4.7,42.5,4.7,42.6,4.8z M40.8,18c-0.2,0-0.3,0-0.5,0c-0.3,0-0.6-0.1-0.9-0.2c-0.1,0-0.2-0.1-0.2-0.1
		c-0.4-0.2-0.8-0.4-1.1-0.7c-0.1-0.1-0.2-0.2-0.3-0.3c-0.1-0.1-0.2-0.2-0.3-0.4l0,0v0c0.2-0.5,0.4-1,0.4-1.5c0-0.3,0.1-0.6,0.1-0.9
		v-3.5c0-0.3,0-0.6-0.1-0.9c0,0,0,0,0,0c0,0,0,0,0.1,0c0,0,0.1,0,0.2,0.1c0,0,0.1,0.1,0.2,0.1l1.2,1l0.4,0.3h0l0.3,0.3
		c0.1,0.1,0.1,0.1,0.2,0.1c0.1,0,0.2,0.1,0.2,0.1c0.1,0,0.2,0,0.3,0c0.1,0,0.1,0,0.2-0.1c0.1,0,0.2-0.1,0.2-0.1l0.3-0.3l0.4-0.3l0,0
		l0,0l1.2-1c0.1-0.1,0.2-0.1,0.3-0.2c0.1,0,0.3-0.1,0.4,0c0,0,0.1,0,0.1,0c0.1,0,0.2,0.1,0.3,0.1c0,0,0,0,0,0c0,0,0.1,0,0.1,0.1
		c0,0,0.1,0.1,0.1,0.2c0.1,0.1,0.1,0.3,0.1,0.5v3.5c0,0.2,0,0.3,0,0.5c0,0.1,0,0.2,0,0.2c0,0.1,0,0.2-0.1,0.3c0,0,0,0.1,0,0.1
		c-0.1,0.2-0.1,0.4-0.2,0.6c0,0.1-0.1,0.2-0.2,0.3s-0.1,0.2-0.2,0.3c-0.2,0.3-0.5,0.6-0.8,0.9c-0.1,0-0.1,0.1-0.2,0.2
		c-0.4,0.3-0.9,0.5-1.4,0.6c-0.1,0-0.3,0.1-0.4,0.1C41.2,18,41,18,40.8,18z M32.3,18c-0.1,0-0.2,0-0.3,0c-0.1,0-0.3,0-0.4,0
		c-0.1,0-0.2,0-0.3,0c-0.1,0-0.2,0-0.2,0c-0.2,0-0.3-0.1-0.4-0.1c-0.1,0-0.2,0-0.2-0.1c-0.1,0-0.2-0.1-0.4-0.2
		c-0.1,0-0.2-0.1-0.3-0.2c-0.4-0.3-0.8-0.6-1-1c0,0,0,0,0,0c0.1-0.2,0.2-0.4,0.2-0.6c0.1-0.3,0.2-0.6,0.2-0.9c0,0,0,0,0-0.1
		c0-0.1,0-0.2,0-0.4c0-0.2,0-0.3,0-0.5v-3.5c0-0.1,0-0.3,0-0.5c0-0.1,0-0.2-0.1-0.3c0,0,0-0.1,0-0.1c0,0,0,0,0,0c0,0,0.1,0,0.1,0
		c0,0,0.1,0,0.1,0c0.1,0,0.1,0.1,0.2,0.1l1.2,1v0l0.4,0.4l0.3,0.2c0.1,0.1,0.3,0.2,0.5,0.2c0,0,0.1,0,0.2,0c0,0,0.1,0,0.1,0
		c0,0,0.1,0,0.1,0c0,0,0.1,0,0.1,0c0.1,0,0.1-0.1,0.2-0.2l0.3-0.3l0.4-0.4h0l1.2-1c0.1-0.1,0.3-0.2,0.4-0.2c0,0,0.1,0,0.1,0
		c0,0,0.1,0,0.1,0c0.1,0,0.1,0,0.2,0c0.2,0,0.3,0.1,0.4,0.2c0.2,0.1,0.3,0.3,0.3,0.7V14c0,0.4,0,0.7-0.2,1.1
		c-0.1,0.3-0.2,0.6-0.4,0.9c-0.1,0.1-0.2,0.3-0.2,0.4c-0.6,0.9-1.7,1.5-2.8,1.7C32.4,18,32.4,18,32.3,18z M24,17.9
		c-0.1,0-0.2,0-0.3,0.1c-0.2,0-0.4,0-0.6,0c-0.1,0-0.3,0-0.4,0c-0.1,0-0.2,0-0.3,0c-0.1,0-0.2,0-0.3-0.1c0,0,0,0-0.1,0
		c-0.1,0-0.2-0.1-0.3-0.1c-0.3-0.1-0.6-0.2-0.9-0.4c-0.1,0-0.2-0.1-0.2-0.2c-0.3-0.2-0.5-0.4-0.7-0.7c-0.1-0.1-0.1-0.1-0.2-0.2
		c-0.1-0.1-0.1-0.2-0.2-0.2c0-0.1-0.1-0.1-0.1-0.2c-0.1-0.1-0.1-0.2-0.2-0.4c0-0.1-0.1-0.2-0.1-0.3c0-0.1,0-0.1-0.1-0.2
		c0,0,0-0.1,0-0.1c0-0.1-0.1-0.3-0.1-0.5c0-0.2,0-0.4,0-0.5v-3.5c0-0.6,0.4-0.8,0.5-0.8c0.1,0,0.2-0.1,0.4-0.1
		c0.2,0,0.4,0.1,0.6,0.2l1.2,1h0l0.4,0.3l0.3,0.3c0.4,0.3,0.9,0.3,1.2,0l0.3-0.3l0.4-0.3l1.2-1c0.2-0.1,0.3-0.2,0.4-0.2c0,0,0,0,0,0
		c0,0,0.1,0,0.1,0c0.1,0,0.2,0,0.3,0c0.1,0,0.1,0,0.2,0c0.1,0.1,0.5,0.3,0.5,0.8V14c0,0.2,0,0.4,0,0.5c0,0.2,0,0.3-0.1,0.5
		c0,0,0,0,0,0s0,0,0,0c0,0.1-0.1,0.2-0.1,0.3c0,0.1-0.1,0.2-0.1,0.3c0,0.1-0.1,0.2-0.2,0.3c0,0-0.1,0.1-0.1,0.2
		c0,0.1-0.1,0.2-0.2,0.2c-0.1,0.1-0.2,0.2-0.3,0.4c-0.1,0.1-0.2,0.2-0.3,0.3c0,0,0,0,0,0c-0.1,0.1-0.2,0.2-0.4,0.3
		c-0.1,0.1-0.2,0.2-0.4,0.2c0,0,0,0,0,0c-0.1,0.1-0.3,0.2-0.4,0.2c0,0,0,0,0,0c-0.1,0-0.2,0.1-0.4,0.1C24.2,17.9,24.1,17.9,24,17.9z
		 M33.8,4.8l1.9,1.6c0.4,0.3,0.9,0.3,1.3,0l1.9-1.6c0,0,0.1-0.1,0.2-0.1c0.1,0,0.1-0.1,0.2-0.1c0,0,0.1,0,0.1,0c0,0,0,0,0,0
		c0.1,0,0.2,0,0.2,0c0.2,0,0.4,0.1,0.5,0.2c0.1,0.1,0.1,0.2,0.2,0.3c0,0,0,0.1,0.1,0.2c0,0.1,0,0.2,0,0.2v3.5l-1-0.8
		c-0.1-0.1-0.2-0.1-0.3-0.2c-0.6-0.4-1.4-0.5-2.1-0.4c-0.2,0-0.3,0.1-0.5,0.1l-0.2,0.1l0,0v0h0c-0.1,0-0.2-0.1-0.3-0.1
		c0,0-0.1,0-0.1,0c0,0-0.1,0-0.1,0c-0.1,0-0.3,0-0.4-0.1c-0.2,0-0.3,0-0.5,0c-0.2,0-0.3,0-0.5,0.1c-0.3,0.1-0.5,0.2-0.8,0.3
		c0,0,0,0,0,0V5.5c0-0.3,0-0.6-0.1-0.9c0,0,0,0,0,0C33.6,4.7,33.7,4.7,33.8,4.8z M25,4.8l1.9,1.6c0.4,0.3,0.9,0.3,1.3,0c0,0,0,0,0,0
		l1.9-1.6c0,0,0.1-0.1,0.2-0.1c0,0,0.1-0.1,0.2-0.1c0,0,0,0,0.1,0c0,0,0,0,0,0c0,0,0.1,0,0.1,0c0,0,0.1,0,0.1,0
		c0.2,0,0.4,0.1,0.5,0.2c0.1,0.1,0.3,0.3,0.3,0.7v3.5c0,0,0,0,0,0l-1-0.8l0,0c-0.1-0.1-0.2-0.1-0.3-0.2c-0.3-0.2-0.5-0.3-0.8-0.4
		c-0.1,0-0.1,0-0.2,0c0,0,0,0-0.1,0c-0.1,0-0.1,0-0.2,0c-0.1,0-0.2,0-0.2,0c0,0,0,0-0.1,0c-0.1,0-0.2,0-0.3,0c-0.1,0-0.3,0-0.4,0.1
		c-0.1,0-0.2,0-0.3,0.1l-0.2,0.1c0,0,0,0-0.1,0c0,0,0,0,0,0c0,0,0,0,0,0c-0.3-0.1-0.6-0.2-0.9-0.2c-0.2,0-0.5,0-0.7,0
		c0,0-0.1,0-0.1,0c-0.1,0-0.2,0-0.3,0.1c-0.1,0-0.2,0.1-0.3,0.1c-0.1,0-0.2,0.1-0.3,0.1c0,0-0.1,0-0.1,0.1V5.5c0-0.1,0-0.2,0-0.3
		c0,0,0-0.1,0-0.1c0-0.1,0-0.2-0.1-0.3c0,0,0-0.1,0-0.1C24.7,4.7,24.9,4.7,25,4.8z M14.7,5.5c0-0.1,0-0.1,0-0.2s0-0.1,0-0.2
		c0,0,0-0.1,0.1-0.1C14.8,5,14.9,4.9,15,4.8c0,0,0.1-0.1,0.1-0.1c0,0,0.1-0.1,0.1-0.1c0,0,0.1,0,0.2-0.1c0.1,0,0.2,0,0.2,0
		c0.2,0,0.4,0,0.6,0.2l0.1,0.1l1.9,1.6c0.4,0.3,0.9,0.3,1.3,0l1.8-1.5l0.1-0.1c0.1,0,0.1-0.1,0.2-0.1c0,0,0.1-0.1,0.1-0.1
		c0,0,0.1,0,0.1,0c0.2,0,0.5,0,0.7,0.1c0,0,0.1,0.1,0.1,0.1c0,0,0.1,0.1,0.1,0.1c0.1,0.1,0.2,0.3,0.2,0.6v3.5l-1-0.8
		c-0.1-0.1-0.2-0.1-0.2-0.2c-0.6-0.4-1.3-0.5-2.1-0.4c-0.2,0-0.4,0.1-0.5,0.1l-0.2,0.1L18.6,8c-0.1,0.1-0.2,0.1-0.3,0.2
		c0,0-0.1,0.1-0.1,0.1c-0.1,0-0.1,0.1-0.2,0.2c-0.1,0-0.1,0.1-0.2,0.2c-0.1,0.1-0.1,0.1-0.2,0.2c0,0,0,0,0,0.1
		c-0.1,0.1-0.1,0.2-0.2,0.3c0,0,0,0.1,0,0.1c0,0,0,0.1,0,0.1c0,0,0,0.1,0,0.1c0,0.1-0.1,0.2-0.1,0.2c0,0.2-0.1,0.3-0.1,0.5
		c0,0.1,0,0.2,0,0.4v2.3c-1-0.4-1.8-1.2-2.2-2.2c-0.2-0.5-0.3-1-0.3-1.6V5.5z M22.2,21.1c-1.1-0.3-2.1-0.6-3.1-1
		c-3.1-1.3-4.9-3-4.9-4.7c0-0.6,0.2-1.2,0.6-1.7c0,0,0.1,0.1,0.1,0.1c0.2,0.2,0.4,0.3,0.6,0.4c0.4,0.3,0.9,0.5,1.4,0.7
		c0.1,0,0.2,0.1,0.3,0.1h0c0,0.2,0,0.3,0.1,0.5c0,0.1,0.1,0.3,0.1,0.5c0.1,0.3,0.2,0.6,0.4,0.9c0.1,0.1,0.1,0.2,0.2,0.4
		c0.1,0.2,0.2,0.3,0.3,0.5c0.1,0.1,0.2,0.2,0.3,0.4c0.5,0.6,1.1,1.1,1.7,1.4c0.2,0.1,0.3,0.2,0.5,0.2c0.2,0.1,0.3,0.1,0.5,0.2
		c0.2,0.1,0.5,0.1,0.7,0.2c0.1,0,0.1,0,0.2,0V21.1z M31,22.3c-1.6,0-3.1-0.2-4.6-0.4c0,0,0,0,0,0c-0.8-0.1-1.6-0.2-2.3-0.4v-1.6
		c0.1,0,0.2,0,0.2,0c0.4-0.1,0.8-0.2,1.1-0.4c0.2-0.1,0.3-0.2,0.5-0.2c0.5-0.3,1-0.6,1.4-1.1c0.1-0.1,0.1-0.1,0.2-0.2
		c0.3,0.4,0.7,0.7,1.1,0.9c0.5,0.3,1,0.6,1.5,0.7c0.1,0,0.2,0.1,0.4,0.1c0.2,0,0.3,0.1,0.5,0.1V22.3z M39.8,21.5
		c-2.1,0.4-4.5,0.7-6.9,0.8v-2.4c0.4-0.1,0.8-0.2,1.1-0.3c0.1,0,0.2-0.1,0.3-0.1c0.1,0,0.2-0.1,0.3-0.2c0.1,0,0.2-0.1,0.3-0.2
		c0.2-0.1,0.4-0.3,0.6-0.4c0.2-0.2,0.5-0.4,0.7-0.7l0,0c0,0,0.1,0.1,0.2,0.2c0.1,0.1,0.2,0.2,0.4,0.3c0.1,0.1,0.2,0.2,0.3,0.2
		c0.4,0.3,0.8,0.5,1.2,0.7c0.1,0.1,0.3,0.1,0.5,0.2c0.2,0,0.3,0.1,0.5,0.1c0.2,0,0.3,0.1,0.5,0.1V21.5z M44.9,20
		c-0.9,0.4-2,0.8-3.1,1v-1.2c0.1,0,0.2,0,0.3-0.1c0.1,0,0.2,0,0.3-0.1c0.1,0,0.2,0,0.2-0.1c0.7-0.2,1.4-0.6,2-1.1
		c0.2-0.1,0.3-0.2,0.4-0.4c0.3-0.3,0.5-0.6,0.7-0.9c0.1-0.1,0.2-0.3,0.3-0.4c0.1-0.2,0.2-0.4,0.3-0.6c0.1-0.3,0.2-0.6,0.3-0.9
		c0-0.1,0-0.2,0.1-0.3c0-0.1,0-0.2,0-0.3c0.1,0,0.2,0,0.3-0.1c0.6-0.2,1.1-0.4,1.6-0.8c0.2-0.1,0.3-0.2,0.5-0.4c0,0,0.1,0,0.1-0.1
		c0.4,0.6,0.6,1.2,0.6,1.7C49.8,17,48,18.7,44.9,20z M33.6,8L33.6,8c0.2-0.1,0.5-0.2,0.8-0.3C34.1,7.8,33.9,7.9,33.6,8z M34.9,7.6
		c0.1,0,0.2,0,0.2,0c0.1,0,0.2,0,0.3,0C35.3,7.6,35.1,7.6,34.9,7.6z M27.6,7.9C27.5,7.9,27.5,7.9,27.6,7.9L27.6,7.9L27.6,7.9
		L27.6,7.9C27.6,7.8,27.6,7.9,27.6,7.9z M28.9,7.6C28.8,7.6,28.8,7.6,28.9,7.6c0,0,0.1,0,0.2,0C29,7.6,28.9,7.6,28.9,7.6z M28.5,7.6
		c0.1,0,0.2,0,0.3,0C28.7,7.6,28.6,7.6,28.5,7.6z M28.5,7.6c-0.1,0-0.3,0-0.4,0.1C28.3,7.6,28.4,7.6,28.5,7.6z M18,8.4
		C18,8.4,18,8.4,18,8.4c0,0-0.1,0.1-0.1,0.1C17.9,8.5,18,8.5,18,8.4z"/>
	<g class="st1">
		<path class="st7" d="M49.8,3l-0.1-0.1l-0.1,0c-0.4-0.1-0.8-0.2-1.1-0.2c-0.7,0-1.3,0.2-1.8,0.7l-1.3,1.1l-1.4-1.1
			c-0.5-0.4-1.1-0.6-1.8-0.6c-0.4,0-0.7,0-1,0.2l-0.2,0.1L40.7,3c-1.3,0.8-1.5,1.9-1.5,2.5V9c0,3.3,2.7,6,6,6s6-2.7,6-6V5.5
			C51.2,5,51.1,3.8,49.8,3z M49.3,9c0,2.3-1.8,4.1-4.1,4.1c-2.2,0-4.1-1.8-4.1-4.1V5.5c0-0.6,0.4-0.8,0.5-0.8c0.1,0,0.2-0.1,0.4-0.1
			c0.2,0,0.4,0,0.6,0.2l1.9,1.6c0.4,0.3,0.9,0.3,1.2,0l1.9-1.6c0.4-0.4,0.9-0.2,1-0.1c0.1,0.1,0.5,0.3,0.5,0.8V9z"/>
		<path class="st10" d="M49.3,5.5V9c0,2.3-1.8,4.1-4.1,4.1c-2.2,0-4.1-1.8-4.1-4.1V5.5c0-0.6,0.4-0.8,0.5-0.8c0.1,0,0.2-0.1,0.4-0.1
			c0.2,0,0.4,0,0.6,0.2l1.9,1.6c0.4,0.3,0.9,0.3,1.2,0l1.9-1.6c0.4-0.4,0.9-0.2,1-0.1C48.9,4.8,49.3,5,49.3,5.5z"/>
	</g>
	<g class="st1">
		<path class="st2" d="M40.9,3l-0.1-0.1l-0.1,0c-0.4-0.1-0.8-0.2-1.1-0.2c-0.7,0-1.3,0.2-1.8,0.7l-1.3,1.1L35,3.3
			c-0.5-0.4-1.1-0.6-1.8-0.6c-0.4,0-0.7,0-1,0.2L32,2.9L31.8,3c-1.3,0.8-1.5,1.9-1.5,2.5V9c0,3.3,2.7,6,6,6s6-2.7,6-6V5.5
			C42.4,5,42.3,3.8,40.9,3z M40.5,9c0,2.3-1.8,4.1-4.1,4.1c-2.2,0-4.1-1.8-4.1-4.1V5.5c0-0.6,0.4-0.8,0.5-0.8c0.1,0,0.2-0.1,0.4-0.1
			c0.2,0,0.4,0,0.6,0.2l1.9,1.6c0.4,0.3,0.9,0.3,1.2,0l1.9-1.6c0.4-0.4,0.9-0.2,1-0.1C40,4.8,40.5,5,40.5,5.5V9z"/>
		<path class="st10" d="M40.5,5.5V9c0,2.3-1.8,4.1-4.1,4.1c-2.2,0-4.1-1.8-4.1-4.1V5.5c0-0.6,0.4-0.8,0.5-0.8c0.1,0,0.2-0.1,0.4-0.1
			c0.2,0,0.4,0,0.6,0.2l1.9,1.6c0.4,0.3,0.9,0.3,1.2,0l1.9-1.6c0.4-0.4,0.9-0.2,1-0.1C40,4.8,40.5,5,40.5,5.5z"/>
	</g>
	<g class="st1">
		<path class="st4" d="M32.1,3L32,2.9l-0.1,0c-0.4-0.1-0.8-0.2-1.1-0.2c-0.7,0-1.3,0.2-1.8,0.7l-1.3,1.1l-1.4-1.1
			c-0.5-0.4-1.1-0.6-1.8-0.6c-0.4,0-0.7,0-1,0.2l-0.2,0.1L23,3c-1.3,0.8-1.5,1.9-1.5,2.5V9c0,3.3,2.7,6,6,6s6-2.7,6-6V5.5
			C33.6,5,33.5,3.8,32.1,3z M31.7,9c0,2.3-1.8,4.1-4.1,4.1c-2.2,0-4.1-1.8-4.1-4.1V5.5c0-0.6,0.4-0.8,0.5-0.8c0.1,0,0.2-0.1,0.4-0.1
			c0.2,0,0.4,0,0.6,0.2L27,6.4c0.4,0.3,0.9,0.3,1.2,0l1.9-1.6c0.4-0.4,0.9-0.2,1-0.1c0.1,0.1,0.5,0.3,0.5,0.8V9z"/>
		<path class="st10" d="M31.7,5.5V9c0,2.3-1.8,4.1-4.1,4.1c-2.2,0-4.1-1.8-4.1-4.1V5.5c0-0.6,0.4-0.8,0.5-0.8c0.1,0,0.2-0.1,0.4-0.1
			c0.2,0,0.4,0,0.6,0.2L27,6.4c0.4,0.3,0.9,0.3,1.2,0l1.9-1.6c0.4-0.4,0.9-0.2,1-0.1C31.3,4.8,31.7,5,31.7,5.5z"/>
	</g>
	<g class="st1">
		<path class="st11" d="M23.3,3l-0.1-0.1l-0.1,0c-0.4-0.1-0.8-0.2-1.1-0.2c-0.7,0-1.3,0.2-1.8,0.7l-1.3,1.1l-1.4-1.1
			c-0.5-0.4-1.1-0.6-1.8-0.6c-0.4,0-0.7,0-1,0.2l-0.2,0.1L14.2,3c-1.3,0.8-1.5,1.9-1.5,2.5V9c0,3.3,2.7,6,6,6s6-2.7,6-6V5.5
			C24.7,5,24.6,3.8,23.3,3z M22.8,9c0,2.3-1.8,4.1-4.1,4.1c-2.2,0-4.1-1.8-4.1-4.1V5.5c0-0.6,0.4-0.8,0.5-0.8c0.1,0,0.2-0.1,0.4-0.1
			c0.2,0,0.4,0,0.6,0.2l1.9,1.6c0.4,0.3,0.9,0.3,1.2,0l1.9-1.6c0.4-0.4,0.9-0.2,1-0.1c0.1,0.1,0.5,0.3,0.5,0.8V9z"/>
		<path class="st10" d="M22.8,5.5V9c0,2.3-1.8,4.1-4.1,4.1c-2.2,0-4.1-1.8-4.1-4.1V5.5c0-0.6,0.4-0.8,0.5-0.8c0.1,0,0.2-0.1,0.4-0.1
			c0.2,0,0.4,0,0.6,0.2l1.9,1.6c0.4,0.3,0.9,0.3,1.2,0l1.9-1.6c0.4-0.4,0.9-0.2,1-0.1C22.4,4.8,22.8,5,22.8,5.5z"/>
	</g>
	<g class="st1">
		<path class="st8" d="M45.3,7.9l-0.1-0.1l-0.1,0c-0.4-0.1-0.8-0.2-1.1-0.2c-0.7,0-1.3,0.2-1.8,0.7l-1.3,1.1l-1.4-1.1
			c-0.5-0.4-1.1-0.6-1.8-0.6c-0.4,0-0.7,0-1,0.2l-0.2,0.1l-0.2,0.1c-1.3,0.8-1.5,1.9-1.5,2.5v3.5c0,3.3,2.7,6,6,6s6-2.7,6-6v-3.5
			C46.8,10,46.7,8.7,45.3,7.9z M44.9,13.9c0,2.3-1.8,4.1-4.1,4.1c-2.2,0-4.1-1.8-4.1-4.1v-3.5c0-0.6,0.4-0.8,0.5-0.8
			c0.1,0,0.2-0.1,0.4-0.1c0.2,0,0.4,0,0.6,0.2l1.9,1.6c0.4,0.3,0.9,0.3,1.2,0l1.9-1.6c0.4-0.4,0.9-0.2,1-0.1
			c0.1,0.1,0.5,0.3,0.5,0.8V13.9z"/>
		<path class="st10" d="M44.9,10.5v3.5c0,2.3-1.8,4.1-4.1,4.1c-2.2,0-4.1-1.8-4.1-4.1v-3.5c0-0.6,0.4-0.8,0.5-0.8
			c0.1,0,0.2-0.1,0.4-0.1c0.2,0,0.4,0,0.6,0.2l1.9,1.6c0.4,0.3,0.9,0.3,1.2,0l1.9-1.6c0.4-0.4,0.9-0.2,1-0.1
			C44.5,9.7,44.9,9.9,44.9,10.5z"/>
	</g>
	<g class="st1">
		<path class="st6" d="M36.5,7.9l-0.1-0.1l-0.1,0c-0.4-0.1-0.8-0.2-1.1-0.2c-0.7,0-1.3,0.2-1.8,0.7L32,9.4l-1.4-1.1
			c-0.5-0.4-1.1-0.6-1.8-0.6c-0.4,0-0.7,0-1,0.2l-0.2,0.1l-0.2,0.1C26.2,8.7,26,9.9,26,10.5v3.5c0,3.3,2.7,6,6,6s6-2.7,6-6v-3.5
			C38,10,37.9,8.7,36.5,7.9z M36.1,13.9c0,2.3-1.8,4.1-4.1,4.1c-2.2,0-4.1-1.8-4.1-4.1v-3.5c0-0.6,0.4-0.8,0.5-0.8
			c0.1,0,0.2-0.1,0.4-0.1c0.2,0,0.4,0,0.6,0.2l1.9,1.6c0.4,0.3,0.9,0.3,1.2,0l1.9-1.6c0.4-0.4,0.9-0.2,1-0.1
			c0.1,0.1,0.5,0.3,0.5,0.8V13.9z"/>
		<path class="st10" d="M36.1,10.5v3.5c0,2.3-1.8,4.1-4.1,4.1c-2.2,0-4.1-1.8-4.1-4.1v-3.5c0-0.6,0.4-0.8,0.5-0.8
			c0.1,0,0.2-0.1,0.4-0.1c0.2,0,0.4,0,0.6,0.2l1.9,1.6c0.4,0.3,0.9,0.3,1.2,0l1.9-1.6c0.4-0.4,0.9-0.2,1-0.1
			C35.7,9.7,36.1,9.9,36.1,10.5z"/>
	</g>
	<g class="st1">
		<path class="st5" d="M27.7,7.9l-0.1-0.1l-0.1,0c-0.4-0.1-0.8-0.2-1.1-0.2c-0.7,0-1.3,0.2-1.8,0.7l-1.3,1.1l-1.4-1.1
			c-0.5-0.4-1.1-0.6-1.8-0.6c-0.4,0-0.7,0-1,0.2l-0.2,0.1l-0.2,0.1c-1.3,0.8-1.5,1.9-1.5,2.5v3.5c0,3.3,2.7,6,6,6s6-2.7,6-6v-3.5
			C29.2,10,29,8.7,27.7,7.9z M27.2,13.9c0,2.3-1.8,4.1-4.1,4.1c-2.2,0-4.1-1.8-4.1-4.1v-3.5c0-0.6,0.4-0.8,0.5-0.8
			c0.1,0,0.2-0.1,0.4-0.1c0.2,0,0.4,0,0.6,0.2l1.9,1.6c0.4,0.3,0.9,0.3,1.2,0l1.9-1.6c0.4-0.4,0.9-0.2,1-0.1
			c0.1,0.1,0.5,0.3,0.5,0.8V13.9z"/>
		<path class="st10" d="M27.2,10.5v3.5c0,2.3-1.8,4.1-4.1,4.1c-2.2,0-4.1-1.8-4.1-4.1v-3.5c0-0.6,0.4-0.8,0.5-0.8
			c0.1,0,0.2-0.1,0.4-0.1c0.2,0,0.4,0,0.6,0.2l1.9,1.6c0.4,0.3,0.9,0.3,1.2,0l1.9-1.6c0.4-0.4,0.9-0.2,1-0.1
			C26.8,9.7,27.2,9.9,27.2,10.5z"/>
	</g>
	<path class="st12" d="M51.8,22.7l-0.4,2.8c0-0.5-0.3-0.9-0.8-0.9c-0.5-0.1-1,0.3-1.1,0.8c-1.2,7-5.2,16.4-17.2,21.2
		c-4.2-5.1-5.4-11.1-5.7-15.2c0-0.5-0.5-0.9-1-0.9c-0.5,0-0.9,0.5-0.9,1c0.2,3.8,1.2,9,4.3,13.9c-3.4-1.8-6.3-4.1-8.6-6.8
		c-2.4-2.9-4.1-6.4-5.2-10.3c-0.9-3.5-1.2-6.7-1.2-9c1,1,2.5,2,4.4,2.8c2,0.8,4.3,1.5,6.8,1.9c-0.2,0.9-0.4,2.3-0.5,4.2
		c0,0.5,0.4,1,0.9,1c0,0,0,0,0.1,0c0.5,0,0.9-0.4,1-0.9c0.1-1.8,0.3-3.2,0.4-4c1.6,0.2,3.2,0.3,4.9,0.3c5.1,0,10-0.8,13.7-2.4
		c1.9-0.8,3.4-1.7,4.4-2.8c0,0.9,0,2-0.1,3.2c0,0.5,0.4,1,0.9,1.1h0.1C51.3,23.4,51.6,23.1,51.8,22.7z"/>
	<path class="st12" d="M37.8,58.4c-0.7,0.2-1.4,0.4-2,0.6c0-0.4,0-0.9,0-1.4c0-0.5-0.5-0.9-1-0.9c-0.5,0-0.9,0.5-0.9,1
		c0,0.5,0,1,0,1.6c-2.5,0.3-5.2,0-7.6-0.9c0-0.9,0-2.7,0.7-4.5c0.2-0.5-0.1-1.1-0.6-1.3c-0.4-0.1-0.8,0-1.1,0.3l1.4-2.5
		c-0.1,0.4,0,0.8,0.3,1c0.4,0.4,1,0.3,1.4-0.1c0.8-1,1.9-1.8,3.2-2.4c0.5,1,1.3,2.9,1.8,5.2c0.1,0.5,0.5,0.8,0.9,0.8
		c0.1,0,0.2,0,0.2,0c0.5-0.1,0.9-0.6,0.7-1.2c-0.3-1.5-0.8-2.9-1.2-3.9c1.7,1.2,2.9,2.9,3.4,5C37.8,56.2,37.8,57.7,37.8,58.4z"/>
</g>
<g>
	<path class="st10" d="M35.7,30.8v2.6c0,1.1,0.4,2.2,1,3.1l9.5,13.2c0.5,0.7,0.8,1.5,0.8,2.3v3.6H17.1v-3.6c0-0.8,0.3-1.6,0.8-2.3
		l9.5-13.2c0.7-0.9,1-2,1-3.1v-2.6c0-1.1-0.4-2.2-1-3.1l-9.5-13.2c-0.5-0.7-0.8-1.5-0.8-2.3V8.6h29.8v3.6c0,0.8-0.3,1.6-0.8,2.3
		l-9.5,13.2C36,28.6,35.7,29.7,35.7,30.8z"/>
	<path class="st2" d="M38.8,29.2L48.3,16c0.8-1.1,1.3-2.5,1.3-3.9V8h2.7V2.8H11.7V8h2.7v4.1c0,1.4,0.5,2.7,1.3,3.9l9.4,13.2
		c0.3,0.5,0.5,1,0.5,1.6v2.6c0,0.5-0.2,1.1-0.5,1.6l-9.4,13.2c-0.8,1.1-1.3,2.5-1.3,3.9V56h-2.7v5.3h40.6V56h-2.7v-4.1
		c0-1.4-0.5-2.7-1.3-3.9l-9.4-13.2c-0.3-0.5-0.5-1-0.5-1.6v-2.6C38.3,30.2,38.5,29.7,38.8,29.2z M36.7,36.4l9.5,13.2
		c0.5,0.7,0.8,1.5,0.8,2.3v3.6H17.1v-3.6c0-0.8,0.3-1.6,0.8-2.3l9.5-13.2c0.7-0.9,1-2,1-3.1v-2.6c0-1.1-0.4-2.2-1-3.1l-9.5-13.2
		c-0.5-0.7-0.8-1.5-0.8-2.3V8.6h29.8v3.6c0,0.8-0.3,1.6-0.8,2.3l-9.5,13.2c-0.7,0.9-1,2-1,3.1v2.6C35.7,34.4,36,35.5,36.7,36.4z"/>
	<path class="st8" d="M29.7,29.4h4.5c0.2-1,0.6-1.9,1.2-2.7l6.8-9.5H21.8l6.8,9.5C29.2,27.6,29.6,28.5,29.7,29.4z"/>
	<path class="st7" d="M30.9,46.4l-7.5,7.5h17.1l-7.5-7.5C32.5,45.8,31.5,45.8,30.9,46.4z"/>
	<path class="st4" d="M32,31.1c-0.6,0-1.2,0.5-1.2,1.2c0,0.7,0.5,1.2,1.2,1.2c0.6,0,1.2-0.5,1.2-1.2C33.1,31.7,32.6,31.1,32,31.1z"
		/>
	<path class="st6" d="M32,35.9c-0.6,0-1.2,0.5-1.2,1.2c0,0.7,0.5,1.2,1.2,1.2c0.6,0,1.2-0.5,1.2-1.2C33.1,36.4,32.6,35.9,32,35.9z"
		/>
	<path class="st11" d="M32,40.8c-0.6,0-1.2,0.5-1.2,1.2c0,0.7,0.5,1.2,1.2,1.2c0.6,0,1.2-0.5,1.2-1.2C33.1,41.3,32.6,40.8,32,40.8z"
		/>
</g>
</svg>
