<svg xmlns="http://www.w3.org/2000/svg" viewBox="0 0 34.89 163.62"><defs><style>.cls-1{fill:#202020;}</style></defs><g id="Layer_2" data-name="Layer 2"><g id="Layer_1-2" data-name="Layer 1"><path class="cls-1" d="M14,1.34c8.5,10,10.36,24.38,10.84,37,.55,14.31-1.39,28.58-3.76,42.65-2.32,13.77-5.07,27.49-6.44,41.4a115.52,115.52,0,0,0-.6,20.28c.46,5.72,1.76,12.07,5.33,16.72a10,10,0,0,0,7.16,4.22,6.32,6.32,0,0,0,6.34-3.78c2.29-5.32-1.8-10.65-7-11.81-.6-.13-.38,1.33.16,1.45,2.74.62,5.55,2.41,6.36,5.25a6,6,0,0,1-2.55,6.65c-2.45,1.45-5.67.79-7.86-.82-2.38-1.75-3.82-4.49-4.84-7.2-2.26-5.92-2.55-12.39-2.37-18.66a192.23,192.23,0,0,1,1.66-19.46c3.41-26,10.56-51.73,9.24-78.16C25,24.35,22.82,10.18,14.28.17c-.55-.65-.64.78-.3,1.17Z"/><path class="cls-1" d="M32.55,121.56c-2-1.49-4.62-1.84-6.9-2.87-4.63-2.09-7.56-6.89-8.75-11.82a29.84,29.84,0,0,1-9.21,8.33c-2.34,1.35-5.05,2.4-7.69,1.86,1.41-3.82,3.77-7.52,7.44-9.28,2.86-1.38,6.17-1.42,9.36-1.43l0-.06.2.06A22.48,22.48,0,0,1,32.55,121.56Z"/><path class="cls-1" d="M3.48,137.51a25.46,25.46,0,0,1,.3-6.17,8.67,8.67,0,0,1,3.07-5.23A9.57,9.57,0,0,1,11,124.55a17.56,17.56,0,0,1,3.69-.22l.34.33a15.38,15.38,0,0,1,9.52,3.27,27.31,27.31,0,0,1,6.69,7.7,30.56,30.56,0,0,1-6.53-1A15.41,15.41,0,0,1,15,125.3,25.63,25.63,0,0,1,3.48,137.51Z"/><path class="cls-1" d="M5.26,149.82a14.32,14.32,0,0,1,2.18-7.43,9.1,9.1,0,0,1,6.26-4.08l.13,0,.42,0a20.36,20.36,0,0,1,11.88,7,16.83,16.83,0,0,1-7.58-1.19,8.26,8.26,0,0,1-4.83-5.68A15.48,15.48,0,0,1,5.26,149.82Z"/><path class="cls-1" d="M23.17,95.26a33.29,33.29,0,0,1-3.08-7.48A22,22,0,0,1,2.23,99.7a29.29,29.29,0,0,1,7.49-8.26,18.75,18.75,0,0,1,10.37-3.68h.32a24.34,24.34,0,0,1,14.48,18.93A70.59,70.59,0,0,1,27.13,100,26.85,26.85,0,0,1,23.17,95.26Z"/></g></g></svg>