<?xml version="1.0" encoding="utf-8"?>
<!-- Generator: Adobe Illustrator 25.4.1, SVG Export Plug-In . SVG Version: 6.00 Build 0)  -->
<svg version="1.1" id="Layer_1" xmlns="http://www.w3.org/2000/svg" xmlns:xlink="http://www.w3.org/1999/xlink" x="0px" y="0px"
	 viewBox="0 0 64 64" style="enable-background:new 0 0 64 64;" xml:space="preserve">
<style type="text/css">
	.st0{fill:#456399;}
	.st1{fill:#E44D65;}
	.st2{fill:#EEAE1F;}
	.st3{fill:#ECC46C;}
	.st4{fill:#69A88D;}
	.st5{fill:#DB7489;}
	.st6{fill:#6487C5;}
	.st7{display:none;}
	.st8{display:inline;fill:#456E5C;}
	.st9{display:inline;}
	.st10{fill:#FFFFFF;}
	.st11{fill:#986AA8;}
</style>
<g>
	<g>
		<path class="st0" d="M47.6,15.1H41l-2.7,3.1l3.8,3.8c0.7-0.1,1.4-0.1,2.2-0.1c0.8,0,1.5,0,2.2,0.1l3.8-3.8L47.6,15.1z M44.3,21.5
			l-3.4-3.4l1-1.2h4.8l1,1.2L44.3,21.5z"/>
		<path class="st1" d="M23,15.1h-6.5l-2.7,3.1l3.8,3.8c0.7-0.1,1.4-0.1,2.2-0.1c0.7,0,1.5,0,2.2,0.1l3.8-3.8L23,15.1z M19.7,21.5
			l-3.4-3.4l1-1.2h4.8l1,1.2L19.7,21.5z"/>
		<path class="st2" d="M64,41.6c0,4.1-1.2,7.9-3.4,11c-0.3,0.5-0.7,1-1.1,1.5v0c-0.8,1-1.7,1.9-2.7,2.7c0,0,0,0,0,0
			c-0.5,0.4-1,0.8-1.5,1.1c-3.2,2.1-6.9,3.4-11,3.4c-0.6,0-1.1,0-1.7-0.1c-0.6,0-1.1-0.1-1.6-0.2c-0.5-0.1-0.9-0.2-1.4-0.3
			c-0.6-0.1-1.2-0.3-1.8-0.5c-0.4-0.1-0.8-0.3-1.2-0.4c-0.1,0-0.3-0.1-0.4-0.2c-0.5-0.2-1-0.5-1.4-0.7c-0.5-0.3-1-0.6-1.5-0.9
			c-0.4-0.2-0.8-0.5-1.1-0.8c0,0-0.1-0.1-0.2-0.1c0,0,0,0,0,0c-0.5-0.4-1-0.8-1.4-1.3c-0.4-0.4-0.9-0.9-1.3-1.3
			c-0.1-0.1-0.2-0.2-0.3-0.4c-0.4-0.5-0.8-1-1.1-1.6c-0.3-0.4-0.5-0.8-0.8-1.2c-0.1-0.2-0.2-0.4-0.3-0.6c-0.9-1.7-1.5-3.5-1.9-5.5
			c0-0.2-0.1-0.5-0.1-0.7c-0.1-0.4-0.1-0.8-0.1-1.3c0-0.5-0.1-1.1-0.1-1.6s0-1.1,0.1-1.6c0-0.7,0.1-1.4,0.3-2
			c0.1-0.8,0.3-1.5,0.6-2.2c0.1-0.5,0.3-0.9,0.5-1.3c0.3-0.8,0.7-1.7,1.2-2.5c0.2-0.4,0.5-0.8,0.7-1.2c0.1,0.1,0.2,0.2,0.3,0.2
			c0.4,0.3,0.7,0.6,1,0.9c0,0,0.1,0.1,0.1,0.1c-0.2,0.3-0.4,0.6-0.5,0.8c-0.4,0.7-0.8,1.5-1.1,2.3c-0.2,0.4-0.3,0.8-0.4,1.2
			c-0.2,0.7-0.4,1.3-0.5,2c-0.1,0.6-0.2,1.2-0.2,1.8c0,0.5-0.1,1-0.1,1.5s0,1,0.1,1.5c0,0.4,0,0.8,0.1,1.2c0,0.2,0.1,0.4,0.1,0.6
			c0.3,1.7,0.9,3.4,1.7,4.9c0.1,0.2,0.2,0.4,0.3,0.5c0.2,0.3,0.4,0.6,0.6,0.9c0,0.1,0.1,0.1,0.1,0.2c0.3,0.5,0.7,0.9,1,1.4l0,0
			c0.1,0.1,0.2,0.2,0.3,0.3c0.4,0.4,0.8,0.8,1.1,1.2c0,0,0.1,0.1,0.1,0.1c0.4,0.4,0.8,0.7,1.2,1c0,0,0,0,0,0c0,0,0.1,0.1,0.1,0.1
			c0,0,0.1,0.1,0.1,0.1c0.3,0.2,0.6,0.5,0.9,0.7c0.4,0.3,0.9,0.6,1.3,0.8c0.4,0.2,0.8,0.5,1.3,0.7c0.1,0.1,0.3,0.1,0.4,0.2
			c0.3,0.1,0.7,0.3,1.1,0.4c0.5,0.2,1.1,0.4,1.7,0.5c0.4,0.1,0.8,0.2,1.2,0.3c0.5,0.1,1,0.1,1.5,0.2c0.5,0,1,0.1,1.5,0.1
			c3.7,0,7.1-1.1,10-3.1c0.5-0.3,0.9-0.6,1.3-1c0,0,0,0,0,0c0.9-0.7,1.7-1.5,2.4-2.4v0c0.4-0.4,0.7-0.9,1-1.3
			c1.9-2.9,3.1-6.3,3.1-10c0-0.6,0-1.1-0.1-1.7c0-0.4-0.1-0.9-0.1-1.3c-0.2-1-0.4-2-0.8-2.9c0-0.2-0.1-0.4-0.2-0.6
			c-0.2-0.5-0.4-1-0.7-1.5c-0.4-0.9-1-1.7-1.5-2.5c-0.2-0.3-0.4-0.6-0.6-0.8c-0.2-0.2-0.4-0.4-0.6-0.7c-0.3-0.4-0.7-0.7-1.1-1.1
			c-0.4-0.4-0.8-0.7-1.2-1c-0.4-0.3-0.8-0.7-1.3-0.9c-0.4-0.3-0.9-0.6-1.4-0.8c-0.3-0.1-0.5-0.3-0.8-0.4c-0.2-0.1-0.5-0.2-0.7-0.3
			c-0.5-0.2-1-0.4-1.5-0.5c-0.6-0.2-1.3-0.4-2-0.5c-0.5-0.1-0.9-0.2-1.4-0.2c-0.6-0.1-1.3-0.1-2-0.1c-0.7,0-1.3,0-1.9,0.1
			c-0.4,0-0.7,0.1-1.1,0.1c-0.9,0.1-1.7,0.4-2.6,0.7c-0.2,0.1-0.4,0.1-0.6,0.2c-0.2,0.1-0.5,0.2-0.7,0.3c-0.5,0.2-1,0.5-1.5,0.8
			c-0.7,0.4-1.3,0.8-1.9,1.2c-0.1,0.1-0.3,0.2-0.4,0.3c-0.5-0.4-0.9-0.8-1.4-1.3c0,0,0.1-0.1,0.1-0.1c0.2-0.2,0.4-0.3,0.6-0.5
			c0.7-0.5,1.4-0.9,2.2-1.4c0.6-0.3,1.1-0.6,1.7-0.8c0.3-0.1,0.5-0.2,0.8-0.3c0.2-0.1,0.4-0.1,0.7-0.2c0.9-0.3,1.9-0.6,2.9-0.7
			c0.4-0.1,0.8-0.1,1.2-0.2c0.7-0.1,1.4-0.1,2.2-0.1c0.8,0,1.5,0,2.2,0.1c0.5,0.1,1,0.1,1.5,0.2c0.8,0.1,1.5,0.3,2.2,0.5
			c0.5,0.2,1.1,0.4,1.6,0.6c0.2,0.1,0.5,0.2,0.8,0.3c0.3,0.1,0.6,0.3,0.9,0.4c0.5,0.3,1,0.6,1.5,0.9c0.5,0.3,1,0.7,1.5,1
			c0.5,0.3,0.9,0.7,1.4,1.1c0.4,0.4,0.8,0.8,1.2,1.2c0.2,0.2,0.4,0.5,0.6,0.7c0.2,0.3,0.5,0.6,0.7,0.9c0.7,0.9,1.2,1.8,1.7,2.8
			c0.3,0.5,0.5,1.1,0.7,1.6c0.1,0.2,0.2,0.4,0.2,0.6c0.4,1,0.7,2.1,0.8,3.2c0,0.5,0.1,0.9,0.2,1.4C64,40.4,64,41,64,41.6z"/>
		<path class="st3" d="M59.8,41.6c0,3.2-1,6.2-2.6,8.7c-0.3,0.4-0.6,0.8-0.9,1.2c-0.6,0.8-1.3,1.5-2.1,2.1c-0.4,0.3-0.8,0.6-1.2,0.9
			c-2.5,1.7-5.5,2.6-8.7,2.6c-0.4,0-0.9,0-1.3,0c-0.4,0-0.9-0.1-1.3-0.2c-0.4-0.1-0.7-0.1-1.1-0.2c-0.5-0.1-1-0.2-1.4-0.4
			c-0.3-0.1-0.6-0.2-0.9-0.3c-0.1,0-0.2-0.1-0.3-0.2c-0.4-0.2-0.8-0.4-1.1-0.6c-0.4-0.2-0.8-0.5-1.2-0.7c-0.2-0.1-0.4-0.3-0.6-0.4
			c-0.1-0.1-0.2-0.1-0.2-0.2c0,0-0.1-0.1-0.1-0.1c0,0,0,0,0,0c-0.4-0.3-0.7-0.6-1-0.9c0,0-0.1-0.1-0.1-0.1c-0.3-0.3-0.7-0.7-1-1
			c-0.1-0.1-0.2-0.2-0.3-0.3c-0.1-0.1-0.2-0.2-0.2-0.3c-0.2-0.3-0.4-0.6-0.6-0.9c-0.2-0.3-0.4-0.6-0.5-0.8c0,0-0.1-0.1-0.1-0.1
			c-0.1-0.1-0.2-0.3-0.2-0.4c-0.7-1.3-1.2-2.8-1.5-4.3c0-0.2-0.1-0.4-0.1-0.6c0-0.3-0.1-0.7-0.1-1c0-0.4,0-0.8,0-1.3
			c0-0.4,0-0.8,0-1.3c0-0.5,0.1-1.1,0.2-1.6c0.1-0.6,0.2-1.2,0.4-1.7c0.1-0.4,0.2-0.7,0.4-1c0.3-0.7,0.6-1.3,0.9-2
			c0,0,0-0.1,0.1-0.1c0,0,0.1,0.1,0.1,0.2c0.4,0.5,0.7,1.1,1,1.7c0,0,0,0,0,0c-0.1,0.3-0.3,0.5-0.4,0.8c-0.1,0.3-0.2,0.6-0.3,0.9
			c-0.2,0.5-0.3,1-0.4,1.5c-0.1,0.4-0.2,0.9-0.2,1.4c0,0.4,0,0.7,0,1.1c0,0.4,0,0.8,0,1.1c0,0.3,0,0.6,0.1,0.9c0,0.2,0,0.3,0.1,0.5
			c0.2,1.2,0.6,2.3,1.1,3.3c0.1,0.2,0.1,0.3,0.2,0.5c0,0.1,0.1,0.3,0.2,0.4c0.1,0.3,0.3,0.6,0.5,0.8c0,0.1,0.1,0.2,0.2,0.2
			c0.2,0.3,0.4,0.6,0.6,0.8c0.1,0.1,0.1,0.2,0.2,0.3c0.2,0.3,0.5,0.5,0.8,0.8c0,0,0.1,0.1,0.1,0.1c0.3,0.3,0.6,0.6,1,0.9
			c0,0,0.1,0.1,0.1,0.1c0.1,0,0.1,0.1,0.2,0.1c0.2,0.1,0.4,0.3,0.6,0.4c0.3,0.2,0.7,0.4,1,0.6c0.3,0.2,0.7,0.3,1,0.5
			c0.1,0,0.2,0.1,0.3,0.1c0.3,0.1,0.5,0.2,0.8,0.3c0.4,0.1,0.8,0.3,1.3,0.4c0.3,0.1,0.6,0.2,0.9,0.2c0.4,0,0.8,0.1,1.1,0.1
			c0.4,0,0.8,0,1.1,0c2.8,0,5.4-0.8,7.6-2.3c0.3-0.2,0.7-0.5,1-0.8c0,0,0,0,0,0c0.7-0.6,1.3-1.2,1.8-1.8c0,0,0,0,0,0
			c0.3-0.3,0.5-0.7,0.8-1c1.5-2.2,2.3-4.8,2.3-7.6c0-0.4,0-0.9-0.1-1.3c0-0.3-0.1-0.7-0.1-1c-0.1-0.8-0.3-1.5-0.6-2.2
			c0-0.1-0.1-0.3-0.2-0.4c-0.1-0.4-0.3-0.8-0.5-1.1c-0.3-0.7-0.8-1.3-1.2-1.9c-0.2-0.2-0.3-0.4-0.5-0.6c-0.1-0.2-0.3-0.3-0.4-0.5
			c-0.3-0.3-0.5-0.6-0.8-0.8c-0.3-0.3-0.6-0.6-0.9-0.8c-0.3-0.2-0.7-0.5-1-0.7c-0.3-0.2-0.7-0.4-1-0.6c-0.2-0.1-0.4-0.2-0.6-0.3
			c-0.2-0.1-0.3-0.1-0.5-0.2c-0.4-0.1-0.8-0.3-1.1-0.4c-0.5-0.2-1-0.3-1.5-0.4c-0.4-0.1-0.7-0.1-1.1-0.2c-0.5,0-1-0.1-1.5-0.1
			c-0.5,0-1,0-1.5,0.1c-0.3,0-0.6,0.1-0.8,0.1c-0.7,0.1-1.3,0.3-2,0.5c-0.1,0-0.3,0.1-0.5,0.1C39.4,29,39.2,29,39,29.1
			c-0.4,0.2-0.8,0.4-1.2,0.6c-0.5,0.3-1,0.6-1.5,0.9c-0.1,0-0.1,0.1-0.2,0.1c-0.3-0.5-0.7-1-1.1-1.5c0.1,0,0.1-0.1,0.2-0.1
			c0.6-0.4,1.1-0.8,1.7-1.1c0.4-0.2,0.9-0.5,1.4-0.7c0.2-0.1,0.4-0.2,0.6-0.2c0.2,0,0.3-0.1,0.5-0.2c0.7-0.2,1.5-0.4,2.3-0.6
			c0.3,0,0.6-0.1,0.9-0.1c0.6,0,1.1-0.1,1.7-0.1c0.6,0,1.2,0,1.7,0.1c0.4,0,0.8,0.1,1.2,0.2c0.6,0.1,1.2,0.2,1.7,0.4
			c0.4,0.1,0.8,0.3,1.3,0.5c0.2,0.1,0.4,0.1,0.6,0.2c0.2,0.1,0.4,0.2,0.7,0.3c0.4,0.2,0.8,0.4,1.2,0.7c0.4,0.2,0.8,0.5,1.2,0.8
			c0.4,0.3,0.7,0.6,1.1,0.9c0.3,0.3,0.6,0.6,0.9,0.9c0.2,0.2,0.3,0.4,0.5,0.6c0.2,0.2,0.4,0.5,0.6,0.7c0.5,0.7,1,1.5,1.3,2.2
			c0.2,0.4,0.4,0.8,0.6,1.3c0,0.2,0.1,0.3,0.2,0.5c0.3,0.8,0.5,1.7,0.7,2.5c0,0.4,0.1,0.8,0.1,1.1C59.8,40.6,59.8,41.1,59.8,41.6z"
			/>
		<path class="st2" d="M39.4,41.6c0,0.6,0,1.1-0.1,1.6c0,0.4-0.1,0.8-0.1,1.3c0,0.2-0.1,0.5-0.1,0.7L39,45.6c0,0.3-0.1,0.7-0.2,1
			c-0.1,0.3-0.2,0.6-0.3,0.9c-0.2,0.6-0.4,1.2-0.7,1.8c-0.1,0.3-0.2,0.6-0.4,0.9c-0.2,0.4-0.4,0.7-0.6,1.1c-0.2,0.4-0.5,0.8-0.8,1.2
			c-0.1,0-0.1-0.1-0.2-0.1c0,0-0.1,0-0.1-0.1c-0.4-0.3-0.7-0.6-1-0.9c0,0-0.1-0.1-0.1-0.1c0.2-0.3,0.4-0.6,0.5-0.9
			c0.2-0.3,0.3-0.7,0.5-1c0.1-0.3,0.2-0.5,0.3-0.8c0.2-0.5,0.4-1.1,0.6-1.6c0.1-0.3,0.2-0.6,0.2-0.8c0.1-0.3,0.1-0.6,0.2-0.9l0-0.3
			c0-0.2,0.1-0.4,0.1-0.6c0.1-0.4,0.1-0.8,0.1-1.2c0-0.5,0.1-1,0.1-1.5s0-1-0.1-1.5c0-0.7-0.1-1.3-0.3-1.9c0-0.1,0-0.1,0-0.2
			c0-0.3-0.1-0.6-0.2-0.8c-0.1-0.3-0.2-0.6-0.2-0.9c-0.5-1.5-1.2-3-2-4.3c0-0.1-0.1-0.1-0.1-0.2c-0.3-0.5-0.6-0.9-1-1.3c0,0,0,0,0,0
			c-0.5-0.5-0.9-1-1.4-1.6c0,0-0.1-0.1-0.1-0.1c-0.4-0.4-0.8-0.7-1.2-1c0,0,0,0,0,0c-0.1-0.1-0.1-0.1-0.2-0.2
			c-0.2-0.2-0.5-0.4-0.7-0.5c-0.5-0.3-0.9-0.6-1.4-0.8c-0.3-0.2-0.6-0.3-0.9-0.5c-0.4-0.2-0.7-0.4-1.1-0.5c-0.4-0.2-0.8-0.3-1.2-0.4
			c-0.8-0.3-1.7-0.5-2.6-0.7C22.4,24,22,24,21.6,23.9c-0.6-0.1-1.3-0.1-1.9-0.1c-0.7,0-1.3,0-2,0.1c-0.5,0-1,0.1-1.5,0.2
			c-0.1,0-0.2,0-0.3,0.1c-0.5,0.1-1,0.2-1.4,0.4h-0.1c-0.5,0.2-1,0.3-1.5,0.5c-0.5,0.2-1,0.4-1.5,0.7c-0.5,0.2-0.9,0.5-1.3,0.8
			c0,0-0.1,0-0.1,0.1c-0.4,0.3-0.8,0.6-1.2,0.9c-0.2,0.1-0.3,0.2-0.4,0.3c-0.3,0.2-0.5,0.5-0.8,0.7c-0.3,0.4-0.7,0.7-1.1,1.1
			c-0.2,0.2-0.4,0.5-0.6,0.7c-0.5,0.6-1,1.3-1.4,1.9c0,0,0,0.1-0.1,0.1c-0.3,0.4-0.5,0.8-0.7,1.3c-0.2,0.5-0.5,1-0.7,1.5
			c-0.2,0.4-0.3,0.8-0.4,1.2c-0.2,0.6-0.3,1.1-0.4,1.7c0,0.2,0,0.3-0.1,0.5C2.1,39,2,39.5,2,39.9c-0.1,0.6-0.1,1.1-0.1,1.7
			c0,3.7,1.1,7.1,3.1,10c0.3,0.5,0.7,0.9,1,1.3v0c0.7,0.9,1.5,1.7,2.4,2.4c0,0,0,0,0,0c0.4,0.3,0.9,0.7,1.4,1
			c2.8,1.9,6.2,3.1,10,3.1c0.5,0,1,0,1.5-0.1c0.5,0,1-0.1,1.5-0.2c0.4-0.1,0.8-0.1,1.2-0.3c0.2,0,0.3,0,0.5-0.1
			c0.4-0.1,0.8-0.2,1.2-0.4c0.4-0.1,0.7-0.2,1-0.4c0.2-0.1,0.4-0.1,0.5-0.2c0.8-0.4,1.6-0.8,2.4-1.3c0,0,0.1,0,0.1-0.1
			c0.3-0.2,0.6-0.4,0.9-0.7c0.5,0.5,0.9,0.9,1.4,1.3c-0.4,0.3-0.8,0.6-1.3,0.9c0,0-0.1,0-0.1,0.1c-0.8,0.6-1.7,1.1-2.6,1.5
			c-0.2,0.1-0.4,0.2-0.6,0.3c-0.4,0.2-0.8,0.3-1.1,0.4c-0.4,0.1-0.9,0.3-1.3,0.4c-0.2,0-0.3,0.1-0.5,0.1C23.9,60.9,23.5,61,23,61
			c-0.5,0.1-1.1,0.2-1.6,0.2c-0.6,0-1.1,0.1-1.7,0.1c-4.1,0-7.9-1.2-11-3.4c-0.5-0.4-1-0.8-1.5-1.1c0,0,0,0,0,0
			c-1-0.8-1.9-1.7-2.7-2.7v0c-0.4-0.5-0.8-1-1.1-1.5C1.2,49.5,0,45.7,0,41.6c0-0.6,0-1.3,0.1-1.9c0-0.5,0.1-1,0.2-1.5
			c0-0.2,0.1-0.4,0.1-0.6c0.1-0.6,0.3-1.3,0.5-1.9c0.1-0.5,0.3-0.9,0.5-1.3c0.2-0.6,0.5-1.1,0.7-1.6c0.2-0.5,0.5-0.9,0.8-1.4
			c0,0,0-0.1,0.1-0.1c0.5-0.8,1-1.5,1.5-2.2c0.2-0.2,0.4-0.5,0.6-0.7c0.4-0.4,0.8-0.8,1.2-1.2c0.3-0.2,0.6-0.5,0.9-0.8
			c0.2-0.1,0.3-0.3,0.5-0.4c0.4-0.3,0.9-0.7,1.4-1c0,0,0.1-0.1,0.1-0.1c0.5-0.3,0.9-0.6,1.5-0.8c0.5-0.3,1.1-0.5,1.6-0.8
			c0.5-0.2,1-0.4,1.6-0.6c0,0,0.1,0,0.1,0c0.5-0.2,1-0.3,1.6-0.4c0.1,0,0.2,0,0.3-0.1c0.6-0.1,1.1-0.2,1.7-0.3
			c0.7-0.1,1.4-0.1,2.2-0.1c0.7,0,1.5,0,2.2,0.1c0.4,0,0.8,0.1,1.2,0.2c1,0.2,1.9,0.4,2.9,0.7c0.4,0.1,0.9,0.3,1.3,0.5
			c0.4,0.2,0.8,0.4,1.3,0.6c0.3,0.2,0.6,0.3,0.9,0.5c0.5,0.3,1,0.6,1.5,0.9c0.4,0.3,0.7,0.5,1.1,0.8c0,0,0,0,0,0
			c0.5,0.4,1,0.8,1.4,1.3c0.6,0.6,1.1,1.1,1.6,1.7c0.4,0.5,0.8,1,1.1,1.5c1,1.5,1.8,3.2,2.4,5c0.1,0.3,0.2,0.6,0.3,0.9
			c0.1,0.3,0.2,0.6,0.2,0.9c0,0.1,0,0.1,0,0.2c0.1,0.7,0.2,1.4,0.3,2.1C39.4,40.5,39.4,41.1,39.4,41.6z"/>
		<path class="st3" d="M35.2,41.6c0,0.4,0,0.9,0,1.3c0,0.3-0.1,0.7-0.1,1c0,0.2,0,0.4-0.1,0.5l0,0.3c0,0.3-0.1,0.5-0.2,0.8
			c-0.1,0.2-0.1,0.5-0.2,0.7c-0.1,0.5-0.3,1-0.5,1.4c-0.1,0.2-0.2,0.5-0.3,0.7c-0.1,0.3-0.3,0.6-0.5,0.8c0,0-0.1,0.1-0.1,0.2
			c0-0.1-0.1-0.2-0.2-0.2c-0.2-0.3-0.4-0.6-0.5-0.8c-0.1-0.1-0.1-0.2-0.2-0.4c-0.1-0.1-0.2-0.3-0.2-0.5c0.1-0.2,0.1-0.3,0.2-0.5
			c0.2-0.4,0.3-0.8,0.4-1.3c0.1-0.2,0.1-0.4,0.2-0.6c0.1-0.2,0.1-0.4,0.1-0.7l0-0.2c0-0.2,0.1-0.3,0.1-0.5c0-0.3,0.1-0.6,0.1-0.9
			c0-0.4,0-0.7,0-1.1c0-0.4,0-0.8,0-1.1c0-0.5-0.1-1-0.2-1.5c0,0,0-0.1,0-0.1c0-0.2-0.1-0.4-0.1-0.7c0-0.2-0.1-0.4-0.2-0.7
			c-0.2-0.6-0.4-1.2-0.7-1.7c0,0,0,0,0,0c-0.3-0.6-0.6-1.2-1-1.7c0-0.1-0.1-0.1-0.1-0.2v0c-0.2-0.3-0.4-0.6-0.6-0.8
			c-0.3-0.4-0.6-0.7-1-1c0,0-0.1-0.1-0.1-0.1c-0.3-0.3-0.6-0.6-1-0.9c-0.1-0.1-0.2-0.2-0.3-0.2c-0.1-0.1-0.3-0.2-0.4-0.3
			c-0.3-0.2-0.7-0.4-1-0.6c-0.2-0.1-0.4-0.2-0.7-0.3c-0.3-0.1-0.6-0.3-0.9-0.4c-0.3-0.1-0.6-0.2-0.9-0.3c-0.6-0.2-1.3-0.4-2-0.5
			c-0.3,0-0.6-0.1-0.8-0.1c-0.5,0-1-0.1-1.5-0.1c-0.5,0-1,0-1.5,0.1c-0.4,0.1-0.8,0.1-1.2,0.2c-0.1,0-0.1,0-0.2,0
			c-0.4,0.1-0.7,0.2-1.1,0.3c0,0-0.1,0-0.1,0c-0.4,0.1-0.8,0.2-1.1,0.4c-0.4,0.1-0.8,0.3-1.1,0.5c-0.3,0.2-0.7,0.4-1,0.6
			c0,0-0.1,0-0.1,0.1c-0.3,0.2-0.6,0.4-0.9,0.7C11.3,31,11.2,31,11,31.1c-0.2,0.2-0.4,0.4-0.6,0.5c-0.3,0.3-0.5,0.5-0.8,0.8
			c-0.1,0.2-0.3,0.3-0.4,0.5c-0.4,0.5-0.8,1-1.1,1.5c0,0,0,0-0.1,0.1c-0.2,0.3-0.4,0.6-0.5,1c-0.2,0.4-0.3,0.8-0.5,1.1
			c-0.1,0.3-0.2,0.6-0.3,0.9c-0.1,0.4-0.3,0.9-0.3,1.3c0,0.1,0,0.2-0.1,0.4c0,0.3-0.1,0.7-0.1,1.1c0,0.4-0.1,0.8-0.1,1.3
			c0,2.8,0.8,5.4,2.3,7.6c0.2,0.3,0.5,0.7,0.8,1c0,0,0,0,0,0c0.6,0.7,1.2,1.3,1.8,1.8h0c0.3,0.3,0.7,0.5,1,0.8
			c2.2,1.5,4.8,2.3,7.6,2.3c0.4,0,0.8,0,1.1,0c0.4,0,0.8-0.1,1.1-0.1c0.3,0,0.7-0.1,0.9-0.2c0.1,0,0.2,0,0.4-0.1
			c0.3-0.1,0.6-0.2,0.9-0.3c0.3-0.1,0.5-0.2,0.8-0.3c0.1,0,0.3-0.1,0.4-0.2c0.6-0.3,1.2-0.6,1.8-1c0,0,0.1,0,0.1,0
			c0.2-0.1,0.4-0.3,0.6-0.4c0.3,0.5,0.7,1.1,1.1,1.6c-0.2,0.2-0.4,0.3-0.6,0.5c0,0-0.1,0-0.1,0c-0.7,0.4-1.4,0.8-2.1,1.2
			c-0.1,0.1-0.3,0.1-0.5,0.2c-0.3,0.1-0.6,0.2-0.9,0.3c-0.3,0.1-0.7,0.2-1,0.3c-0.1,0-0.3,0.1-0.4,0.1c-0.3,0.1-0.7,0.2-1.1,0.2
			C21.9,57,21.5,57,21,57.1c-0.4,0-0.9,0-1.3,0c-3.2,0-6.2-1-8.7-2.6c-0.4-0.3-0.8-0.6-1.2-0.9h0c-0.8-0.6-1.5-1.4-2.1-2.1
			c0,0,0,0,0,0c-0.3-0.4-0.6-0.8-0.9-1.2c-1.7-2.5-2.6-5.5-2.6-8.7c0-0.5,0-1,0.1-1.5c0-0.4,0.1-0.8,0.1-1.2c0-0.1,0.1-0.3,0.1-0.4
			c0.1-0.5,0.2-1,0.4-1.5c0.1-0.4,0.2-0.7,0.4-1c0.2-0.4,0.4-0.9,0.6-1.3c0.2-0.4,0.4-0.8,0.6-1.1c0,0,0-0.1,0.1-0.1
			c0.4-0.6,0.8-1.2,1.2-1.7c0.2-0.2,0.3-0.4,0.5-0.6c0.3-0.3,0.6-0.6,0.9-0.9c0.2-0.2,0.5-0.4,0.7-0.6c0.1-0.1,0.2-0.2,0.4-0.3
			c0.3-0.3,0.7-0.5,1.1-0.8c0,0,0.1,0,0.1-0.1c0.4-0.2,0.8-0.5,1.2-0.7c0.4-0.2,0.8-0.4,1.3-0.6c0.4-0.2,0.8-0.3,1.3-0.5
			c0,0,0.1,0,0.1,0c0.4-0.1,0.8-0.2,1.2-0.3c0.1,0,0.1,0,0.2,0c0.4-0.1,0.9-0.2,1.3-0.2c0.6,0,1.1-0.1,1.7-0.1c0.6,0,1.1,0,1.7,0.1
			c0.3,0,0.6,0.1,0.9,0.1c0.8,0.1,1.5,0.3,2.3,0.6c0.3,0.1,0.7,0.2,1,0.4c0.3,0.1,0.7,0.3,1,0.4c0.2,0.1,0.5,0.2,0.8,0.4
			c0.4,0.2,0.8,0.5,1.2,0.7c0.2,0.1,0.3,0.2,0.5,0.4c0.1,0.1,0.3,0.2,0.4,0.3c0,0,0,0,0,0c0.4,0.3,0.7,0.6,1,0.9c0,0,0,0,0.1,0.1
			c0.4,0.4,0.8,0.9,1.2,1.4c0.1,0.1,0.2,0.2,0.3,0.3c0.2,0.3,0.4,0.6,0.6,0.9c0.2,0.3,0.3,0.5,0.5,0.8c0.6,1,1,2,1.4,3.1
			c0.1,0.2,0.1,0.5,0.2,0.7c0.1,0.3,0.1,0.5,0.2,0.8c0,0,0,0.1,0,0.2c0.1,0.6,0.2,1.1,0.2,1.7C35.2,40.8,35.2,41.2,35.2,41.6z"/>
	</g>
	<g>
		<g>
			<rect x="31" y="2.7" class="st4" width="1.9" height="5.9"/>
		</g>
	</g>
	<g>
		<g>
			
				<rect x="36.9" y="6.5" transform="matrix(0.4198 -0.9076 0.9076 0.4198 16.3222 40.4898)" class="st5" width="5.9" height="1.9"/>
		</g>
	</g>
	<g>
		<g>
			<rect x="23.2" y="4.5" transform="matrix(0.9076 -0.4198 0.4198 0.9076 -0.907 10.8359)" class="st6" width="1.9" height="5.9"/>
		</g>
	</g>
</g>
<g class="st7">
	<path class="st8" d="M50.4,12.1c0.5-0.9,0.8-1.9,0.8-3V5.5c0-1.1-0.7-2.1-1.7-2.6c-1-0.5-2.2-0.3-3.1,0.4l-1.3,1.1l-1.3-1.1
		C43,2.6,41.8,2.5,40.8,3c-1-0.5-2.2-0.4-3.1,0.4l-1.3,1.1l-1.3-1.1C34.2,2.6,33,2.5,32,3c-1-0.5-2.2-0.4-3.1,0.4l-1.3,1.1l-1.3-1.1
		c-0.9-0.8-2.1-0.9-3.1-0.4c-1-0.5-2.2-0.4-3.1,0.4l-1.3,1.1l-1.3-1.1c-0.8-0.7-2-0.9-3.1-0.4c-1,0.5-1.6,1.5-1.6,2.6V9
		c0,1.1,0.3,2.1,0.8,3c-1.6,1.6-2.2,9.6-0.3,16.4c1.1,4.2,3,7.9,5.6,11c2.8,3.4,6.4,6.1,10.8,8.1c-1.1,0.7-2,1.5-2.8,2.4
		c-0.3,0.4-0.3,1,0.1,1.4c0.4,0.4,1,0.3,1.4-0.1c0.8-1,1.9-1.8,3.2-2.4c0.5,1,1.3,3,1.8,5.2c0.1,0.5,0.5,0.8,0.9,0.8
		c0.1,0,0.1,0,0.2,0c0.5-0.1,0.8-0.6,0.7-1.2c-0.3-1.5-0.8-2.9-1.2-3.9c1.7,1.2,2.9,2.9,3.4,5c0.4,1.5,0.4,3,0.4,3.7
		c-0.7,0.2-1.4,0.4-2,0.6c0-0.4,0-0.9,0-1.4c0-0.5-0.5-0.9-1-0.9c-0.5,0-0.9,0.5-0.9,1c0,0.5,0,1,0,1.6c-2.5,0.3-5.2,0-7.6-0.9
		c0-0.9,0-2.7,0.7-4.5c0.2-0.5-0.1-1.1-0.6-1.3c-0.5-0.2-1.1,0.1-1.2,0.6c-0.6,1.6-0.8,3.2-0.8,4.2c0,0.5,0,0.9,0,1.3
		c0,0.6,0.1,0.7,0.2,0.9c0.1,0.1,0.3,0.3,0.4,0.3c2.3,0.9,4.7,1.3,7.1,1.3c2.4,0,4.8-0.4,7.1-1.3c0.3-0.1,0.6-0.4,0.6-0.8
		c0-0.1,0.4-2.3-0.4-5c-0.6-2.1-1.9-4.8-4.9-6.6c11.7-5.3,15.8-14.8,17-22.1c0.1-0.5-0.2-1-0.8-1.1c-0.5-0.1-1,0.3-1.1,0.8
		c-1.2,7-5.3,16.4-17.2,21.2c-4.2-5.1-5.4-11.1-5.6-15.2c0-0.5-0.5-0.9-1-0.9c-0.5,0-0.9,0.5-0.9,1c0.2,3.8,1.2,9,4.3,13.9
		c-3.4-1.8-6.3-4.1-8.6-6.8c-2.4-2.9-4.1-6.4-5.2-10.3c-0.9-3.5-1.2-6.7-1.2-9c1,1,2.5,2,4.4,2.8c2,0.8,4.3,1.5,6.8,1.9
		c-0.2,0.9-0.4,2.3-0.5,4.2c0,0.5,0.4,1,0.9,1c0,0,0,0,0,0c0.5,0,0.9-0.4,1-0.9c0.1-1.8,0.3-3.2,0.4-4c1.6,0.2,3.2,0.3,4.9,0.3
		c5.1,0,10-0.8,13.7-2.4c1.9-0.8,3.4-1.7,4.4-2.8c0,0.9,0,2-0.1,3.2c0,0.5,0.4,1,0.9,1.1h0.1c0.5,0,0.9-0.4,1-0.9
		C52.2,18.5,52,14.1,50.4,12.1z M42.6,4.8l1.9,1.6c0.4,0.3,0.9,0.3,1.3,0l1.9-1.6c0.4-0.3,0.8-0.2,1-0.1c0.1,0,0.5,0.3,0.5,0.8V9
		c0,1.7-1,3.1-2.5,3.8v-2.3c0-0.8-0.3-1.6-1-2.2c-1-0.9-2.4-0.9-3.4-0.3V5.5c0-0.3,0-0.6-0.1-0.9C42.4,4.7,42.5,4.7,42.6,4.8z
		 M33.8,4.8l1.9,1.6c0.4,0.3,0.9,0.3,1.3,0l1.9-1.6c0.4-0.3,0.9-0.2,1.2,0c0.1,0.1,0.3,0.3,0.3,0.7V9c0,0,0,0,0,0l-1-0.8
		c-0.9-0.8-2.1-0.9-3.1-0.4c-0.9-0.4-1.9-0.4-2.8,0.2V5.5c0-0.3,0-0.6-0.1-0.9C33.6,4.7,33.7,4.7,33.8,4.8z M25,4.8l1.9,1.6
		c0.4,0.3,0.9,0.3,1.3,0l1.9-1.6c0.4-0.3,0.9-0.2,1.2,0c0.1,0.1,0.3,0.3,0.3,0.7V9c0,0,0,0,0,0l-1-0.8c-0.9-0.8-2.1-0.9-3.1-0.4
		c0,0,0,0,0,0c-0.9-0.4-1.9-0.3-2.8,0.2V5.5c0-0.3,0-0.6-0.1-0.9C24.7,4.7,24.9,4.7,25,4.8z M14.7,5.5c0-0.5,0.4-0.8,0.5-0.8
		c0.1,0,0.6-0.2,1,0.1l1.9,1.6c0.4,0.3,0.9,0.3,1.3,0l1.9-1.6c0.4-0.3,0.9-0.2,1.2,0c0.1,0.1,0.3,0.3,0.3,0.7V9c0,0,0,0,0,0l-1-0.8
		c-0.8-0.7-2-0.9-3.1-0.4c-1,0.5-1.6,1.5-1.6,2.6v2.3c-1.5-0.6-2.5-2.1-2.5-3.8V5.5z M22.2,21.1c-1.1-0.3-2.1-0.6-3.1-1
		c-3.1-1.3-4.9-3-4.9-4.7c0-0.6,0.2-1.2,0.6-1.7c0.7,0.6,1.5,1,2.4,1.3c0.4,2.6,2.4,4.6,5,5.1V21.1z M19.1,13.9v-3.5
		c0-0.6,0.4-0.8,0.5-0.8c0.1,0,0.2-0.1,0.4-0.1c0.2,0,0.4,0,0.6,0.2l1.9,1.6c0.4,0.3,0.9,0.3,1.2,0l1.9-1.6c0.4-0.4,0.9-0.2,1-0.1
		c0.1,0.1,0.5,0.3,0.5,0.8v3.5c0,2.3-1.8,4.1-4.1,4.1C20.9,18,19.1,16.2,19.1,13.9z M31,22.3c-1.6,0-3.1-0.2-4.6-0.4c0,0,0,0,0,0
		c-0.8-0.1-1.5-0.2-2.3-0.4v-1.6c1.3-0.2,2.5-0.9,3.4-1.9c0.9,1,2.1,1.6,3.4,1.8V22.3z M28.7,16.3c0.3-0.7,0.5-1.5,0.5-2.4v-3.5
		c0-0.3,0-0.6-0.1-0.9c0.1,0,0.3,0.1,0.4,0.2l1.9,1.6c0.4,0.3,0.9,0.3,1.3,0l1.9-1.6c0.4-0.4,0.9-0.2,1.2,0c0.1,0.1,0.3,0.3,0.3,0.7
		v3.5c0,0.7-0.2,1.4-0.5,2C34.8,17.2,33.4,18,32,18C30.7,18,29.4,17.4,28.7,16.3z M39.8,21.6c-2.1,0.4-4.5,0.7-6.9,0.8v-2.4
		c1.3-0.2,2.5-0.9,3.4-1.8c0.9,1,2.1,1.6,3.4,1.8V21.6z M37.5,16.3c0.3-0.8,0.5-1.6,0.5-2.4v-3.5c0-0.3,0-0.6-0.1-0.9
		c0.1,0,0.3,0.1,0.4,0.2l1.9,1.6c0.4,0.3,0.9,0.3,1.2,0l2-1.6c0.4-0.4,0.9-0.2,1.2,0c0.1,0.1,0.3,0.3,0.3,0.7v3.5
		c0,0.7-0.2,1.4-0.5,2c-0.7,1.3-2.1,2.1-3.6,2.1C39.5,18,38.3,17.4,37.5,16.3z M44.9,20.1c-0.9,0.4-2,0.8-3.1,1v-1.2
		c1.8-0.3,3.4-1.4,4.3-3c0.3-0.6,0.6-1.3,0.7-2c0.9-0.2,1.7-0.7,2.4-1.3c0.4,0.6,0.6,1.2,0.6,1.7C49.8,17,48,18.7,44.9,20.1z"/>
	<g class="st9">
		<path class="st5" d="M49.8,3l-0.1-0.1l-0.1,0c-0.4-0.1-0.8-0.2-1.1-0.2c-0.7,0-1.3,0.2-1.8,0.7l-1.3,1.1l-1.4-1.1
			c-0.5-0.4-1.1-0.6-1.8-0.6c-0.4,0-0.7,0-1,0.2l-0.2,0.1L40.7,3c-1.3,0.8-1.5,1.9-1.5,2.5V9c0,3.3,2.7,6,6,6s6-2.7,6-6V5.5
			C51.2,5,51.1,3.8,49.8,3z M49.3,9c0,2.3-1.8,4.1-4.1,4.1c-2.2,0-4.1-1.8-4.1-4.1V5.5c0-0.6,0.4-0.8,0.5-0.8c0.1,0,0.2-0.1,0.4-0.1
			c0.2,0,0.4,0,0.6,0.2l1.9,1.6c0.4,0.3,0.9,0.3,1.2,0l1.9-1.6c0.4-0.4,0.9-0.2,1-0.1c0.1,0.1,0.5,0.3,0.5,0.8V9z"/>
		<path class="st10" d="M49.3,5.5V9c0,2.3-1.8,4.1-4.1,4.1c-2.2,0-4.1-1.8-4.1-4.1V5.5c0-0.6,0.4-0.8,0.5-0.8c0.1,0,0.2-0.1,0.4-0.1
			c0.2,0,0.4,0,0.6,0.2l1.9,1.6c0.4,0.3,0.9,0.3,1.2,0l1.9-1.6c0.4-0.4,0.9-0.2,1-0.1C48.9,4.8,49.3,5,49.3,5.5z"/>
	</g>
	<g class="st9">
		<path class="st0" d="M40.9,3l-0.1-0.1l-0.1,0c-0.4-0.1-0.8-0.2-1.1-0.2c-0.7,0-1.3,0.2-1.8,0.7l-1.3,1.1L35,3.3
			c-0.5-0.4-1.1-0.6-1.8-0.6c-0.4,0-0.7,0-1,0.2L32,2.9L31.8,3c-1.3,0.8-1.5,1.9-1.5,2.5V9c0,3.3,2.7,6,6,6s6-2.7,6-6V5.5
			C42.4,5,42.3,3.8,40.9,3z M40.5,9c0,2.3-1.8,4.1-4.1,4.1c-2.2,0-4.1-1.8-4.1-4.1V5.5c0-0.6,0.4-0.8,0.5-0.8c0.1,0,0.2-0.1,0.4-0.1
			c0.2,0,0.4,0,0.6,0.2l1.9,1.6c0.4,0.3,0.9,0.3,1.2,0l1.9-1.6c0.4-0.4,0.9-0.2,1-0.1C40,4.8,40.5,5,40.5,5.5V9z"/>
		<path class="st10" d="M40.5,5.5V9c0,2.3-1.8,4.1-4.1,4.1c-2.2,0-4.1-1.8-4.1-4.1V5.5c0-0.6,0.4-0.8,0.5-0.8c0.1,0,0.2-0.1,0.4-0.1
			c0.2,0,0.4,0,0.6,0.2l1.9,1.6c0.4,0.3,0.9,0.3,1.2,0l1.9-1.6c0.4-0.4,0.9-0.2,1-0.1C40,4.8,40.5,5,40.5,5.5z"/>
	</g>
	<g class="st9">
		<path class="st2" d="M32.1,3L32,2.9l-0.1,0c-0.4-0.1-0.8-0.2-1.1-0.2c-0.7,0-1.3,0.2-1.8,0.7l-1.3,1.1l-1.4-1.1
			c-0.5-0.4-1.1-0.6-1.8-0.6c-0.4,0-0.7,0-1,0.2l-0.2,0.1L23,3c-1.3,0.8-1.5,1.9-1.5,2.5V9c0,3.3,2.7,6,6,6s6-2.7,6-6V5.5
			C33.6,5,33.5,3.8,32.1,3z M31.7,9c0,2.3-1.8,4.1-4.1,4.1c-2.2,0-4.1-1.8-4.1-4.1V5.5c0-0.6,0.4-0.8,0.5-0.8c0.1,0,0.2-0.1,0.4-0.1
			c0.2,0,0.4,0,0.6,0.2L27,6.4c0.4,0.3,0.9,0.3,1.2,0l1.9-1.6c0.4-0.4,0.9-0.2,1-0.1c0.1,0.1,0.5,0.3,0.5,0.8V9z"/>
		<path class="st10" d="M31.7,5.5V9c0,2.3-1.8,4.1-4.1,4.1c-2.2,0-4.1-1.8-4.1-4.1V5.5c0-0.6,0.4-0.8,0.5-0.8c0.1,0,0.2-0.1,0.4-0.1
			c0.2,0,0.4,0,0.6,0.2L27,6.4c0.4,0.3,0.9,0.3,1.2,0l1.9-1.6c0.4-0.4,0.9-0.2,1-0.1C31.3,4.8,31.7,5,31.7,5.5z"/>
	</g>
	<g class="st9">
		<path class="st11" d="M23.3,3l-0.1-0.1l-0.1,0c-0.4-0.1-0.8-0.2-1.1-0.2c-0.7,0-1.3,0.2-1.8,0.7l-1.3,1.1l-1.4-1.1
			c-0.5-0.4-1.1-0.6-1.8-0.6c-0.4,0-0.7,0-1,0.2l-0.2,0.1L14.2,3c-1.3,0.8-1.5,1.9-1.5,2.5V9c0,3.3,2.7,6,6,6s6-2.7,6-6V5.5
			C24.7,5,24.6,3.8,23.3,3z M22.8,9c0,2.3-1.8,4.1-4.1,4.1c-2.2,0-4.1-1.8-4.1-4.1V5.5c0-0.6,0.4-0.8,0.5-0.8c0.1,0,0.2-0.1,0.4-0.1
			c0.2,0,0.4,0,0.6,0.2l1.9,1.6c0.4,0.3,0.9,0.3,1.2,0l1.9-1.6c0.4-0.4,0.9-0.2,1-0.1c0.1,0.1,0.5,0.3,0.5,0.8V9z"/>
		<path class="st10" d="M22.8,5.5V9c0,2.3-1.8,4.1-4.1,4.1c-2.2,0-4.1-1.8-4.1-4.1V5.5c0-0.6,0.4-0.8,0.5-0.8c0.1,0,0.2-0.1,0.4-0.1
			c0.2,0,0.4,0,0.6,0.2l1.9,1.6c0.4,0.3,0.9,0.3,1.2,0l1.9-1.6c0.4-0.4,0.9-0.2,1-0.1C22.4,4.8,22.8,5,22.8,5.5z"/>
	</g>
	<g class="st9">
		<path class="st6" d="M45.3,7.9l-0.1-0.1l-0.1,0c-0.4-0.1-0.8-0.2-1.1-0.2c-0.7,0-1.3,0.2-1.8,0.7l-1.3,1.1l-1.4-1.1
			c-0.5-0.4-1.1-0.6-1.8-0.6c-0.4,0-0.7,0-1,0.2l-0.2,0.1l-0.2,0.1c-1.3,0.8-1.5,1.9-1.5,2.5v3.5c0,3.3,2.7,6,6,6s6-2.7,6-6v-3.5
			C46.8,10,46.7,8.7,45.3,7.9z M44.9,13.9c0,2.3-1.8,4.1-4.1,4.1c-2.2,0-4.1-1.8-4.1-4.1v-3.5c0-0.6,0.4-0.8,0.5-0.8
			c0.1,0,0.2-0.1,0.4-0.1c0.2,0,0.4,0,0.6,0.2l1.9,1.6c0.4,0.3,0.9,0.3,1.2,0l1.9-1.6c0.4-0.4,0.9-0.2,1-0.1
			c0.1,0.1,0.5,0.3,0.5,0.8V13.9z"/>
		<path class="st10" d="M44.9,10.5v3.5c0,2.3-1.8,4.1-4.1,4.1c-2.2,0-4.1-1.8-4.1-4.1v-3.5c0-0.6,0.4-0.8,0.5-0.8
			c0.1,0,0.2-0.1,0.4-0.1c0.2,0,0.4,0,0.6,0.2l1.9,1.6c0.4,0.3,0.9,0.3,1.2,0l1.9-1.6c0.4-0.4,0.9-0.2,1-0.1
			C44.5,9.7,44.9,9.9,44.9,10.5z"/>
	</g>
	<g class="st9">
		<path class="st4" d="M36.5,7.9l-0.1-0.1l-0.1,0c-0.4-0.1-0.8-0.2-1.1-0.2c-0.7,0-1.3,0.2-1.8,0.7L32,9.4l-1.4-1.1
			c-0.5-0.4-1.1-0.6-1.8-0.6c-0.4,0-0.7,0-1,0.2l-0.2,0.1l-0.2,0.1C26.2,8.7,26,9.9,26,10.5v3.5c0,3.3,2.7,6,6,6s6-2.7,6-6v-3.5
			C38,10,37.9,8.7,36.5,7.9z M36.1,13.9c0,2.3-1.8,4.1-4.1,4.1c-2.2,0-4.1-1.8-4.1-4.1v-3.5c0-0.6,0.4-0.8,0.5-0.8
			c0.1,0,0.2-0.1,0.4-0.1c0.2,0,0.4,0,0.6,0.2l1.9,1.6c0.4,0.3,0.9,0.3,1.2,0l1.9-1.6c0.4-0.4,0.9-0.2,1-0.1
			c0.1,0.1,0.5,0.3,0.5,0.8V13.9z"/>
		<path class="st10" d="M36.1,10.5v3.5c0,2.3-1.8,4.1-4.1,4.1c-2.2,0-4.1-1.8-4.1-4.1v-3.5c0-0.6,0.4-0.8,0.5-0.8
			c0.1,0,0.2-0.1,0.4-0.1c0.2,0,0.4,0,0.6,0.2l1.9,1.6c0.4,0.3,0.9,0.3,1.2,0l1.9-1.6c0.4-0.4,0.9-0.2,1-0.1
			C35.7,9.7,36.1,9.9,36.1,10.5z"/>
	</g>
	<g class="st9">
		<path class="st3" d="M27.7,7.9l-0.1-0.1l-0.1,0c-0.4-0.1-0.8-0.2-1.1-0.2c-0.7,0-1.3,0.2-1.8,0.7l-1.3,1.1l-1.4-1.1
			c-0.5-0.4-1.1-0.6-1.8-0.6c-0.4,0-0.7,0-1,0.2l-0.2,0.1l-0.2,0.1c-1.3,0.8-1.5,1.9-1.5,2.5v3.5c0,3.3,2.7,6,6,6s6-2.7,6-6v-3.5
			C29.2,10,29,8.7,27.7,7.9z M27.2,13.9c0,2.3-1.8,4.1-4.1,4.1c-2.2,0-4.1-1.8-4.1-4.1v-3.5c0-0.6,0.4-0.8,0.5-0.8
			c0.1,0,0.2-0.1,0.4-0.1c0.2,0,0.4,0,0.6,0.2l1.9,1.6c0.4,0.3,0.9,0.3,1.2,0l1.9-1.6c0.4-0.4,0.9-0.2,1-0.1
			c0.1,0.1,0.5,0.3,0.5,0.8V13.9z"/>
		<path class="st10" d="M27.2,10.5v3.5c0,2.3-1.8,4.1-4.1,4.1c-2.2,0-4.1-1.8-4.1-4.1v-3.5c0-0.6,0.4-0.8,0.5-0.8
			c0.1,0,0.2-0.1,0.4-0.1c0.2,0,0.4,0,0.6,0.2l1.9,1.6c0.4,0.3,0.9,0.3,1.2,0l1.9-1.6c0.4-0.4,0.9-0.2,1-0.1
			C26.8,9.7,27.2,9.9,27.2,10.5z"/>
	</g>
</g>
</svg>
