<!DOCTYPE svg PUBLIC "-//W3C//DTD SVG 1.1//EN" "http://www.w3.org/Graphics/SVG/1.1/DTD/svg11.dtd">
<!-- Uploaded to: SVG Repo, www.svgrepo.com, Transformed by: SVG Repo Mixer Tools -->
<svg fill="#000000" version="1.1" id="Layer_1" xmlns="http://www.w3.org/2000/svg" xmlns:xlink="http://www.w3.org/1999/xlink" viewBox="0 0 496 496" xml:space="preserve" width="64px" height="64px">
<g id="SVGRepo_bgCarrier" stroke-width="0"/>
<g id="SVGRepo_tracerCarrier" stroke-linecap="round" stroke-linejoin="round"/>
<g id="SVGRepo_iconCarrier"> <g> <g> <g> <path d="M405.76,189.16c-5.928-11.832-17.32-19.672-30.48-20.968c-3.256-0.328-6.24,0.144-8.192,0.52l-77.272,14.8 c-28.928,5.544-58.28,5.536-87.192,0l-77.192-14.792c-1.992-0.376-5.032-0.824-8.296-0.528 c-13.144,1.32-24.512,9.168-30.44,20.992l-1.568,3.152c-4.976,9.944-4.392,21.968,1.528,31.352L187.28,384.76l-18.336-7.056 C166,376.568,162.912,376,159.768,376c-14.08,0-25.536,11.456-25.536,25.536v44.92c0,14.088,11.456,25.544,25.536,25.544 c3.144,0,6.224-0.568,9.176-1.704l7.112-2.736c-1.16,2.264-1.824,4.768-1.824,7.336V480c0,8.824,7.176,16,16,16h112 c8.824,0,16-7.176,16-16v-5.104c0-2.576-0.664-5.08-1.832-7.336l7.12,2.736c2.944,1.136,6.032,1.704,9.176,1.704 c14.08,0,25.536-11.456,25.536-25.536v-44.92c0-14.088-11.456-25.544-25.536-25.544c-3.144,0-6.224,0.568-9.176,1.704 l-18.328,7.048L405.8,223.704c5.936-9.408,6.52-21.432,1.552-31.352L405.76,189.16z M163.208,455.36 c-6.072,2.312-12.976-2.472-12.976-8.896v-44.92c0-5.264,4.28-9.544,9.536-9.544c1.168,0,2.328,0.216,3.432,0.64L244.752,424 L163.208,455.36z M302.232,480h-112v-5.056l21.448-21.088l34.552-13.288l34.552,13.288l21.448,21.04V480z M329.256,392.64 c6.096-2.304,12.976,2.472,12.976,8.896v44.92c0,6.432-6.928,11.208-12.968,8.896L247.72,424L329.256,392.64z M392.248,215.192 L280.36,394.304l-5.192,2l18.56-49.488l-14.984-5.624l-23.552,62.792l-0.96,0.368V344h-16v60.352l-0.84-0.32l-23.496-78.328 l-15.328,4.592l19.944,66.472l-6.4-2.464L100.2,215.168c-2.96-4.704-3.256-10.712-0.76-15.696l1.568-3.16 c3.44-6.872,10.064-11.448,17.688-12.208c0.96-0.096,2.128,0.016,3.728,0.32l77.176,14.792c30.928,5.92,62.28,5.92,93.224,0 l77.264-14.8c1.568-0.304,2.72-0.408,3.608-0.312c7.664,0.76,14.296,5.32,17.736,12.192l1.584,3.192 C395.52,204.464,395.224,210.472,392.248,215.192z"/> <path d="M134.232,160c26.472,0,48-21.528,48-48s-21.528-48-48-48s-48,21.528-48,48S107.76,160,134.232,160z M134.232,80 c17.648,0,32,14.352,32,32s-14.352,32-32,32s-32-14.352-32-32S116.584,80,134.232,80z"/> <path d="M134.232,136c13.232,0,24-10.768,24-24s-10.768-24-24-24s-24,10.768-24,24S121,136,134.232,136z M134.232,104 c4.416,0,8,3.584,8,8s-3.584,8-8,8s-8-3.584-8-8S129.816,104,134.232,104z"/> <path d="M182.232,16c17.648,0,32,14.352,32,32h16c0-26.472-21.528-48-48-48s-48,21.528-48,48h16 C150.232,30.352,164.584,16,182.232,16z"/> <path d="M182.232,24c-13.232,0-24,10.768-24,24s10.768,24,24,24s24-10.768,24-24S195.464,24,182.232,24z M182.232,56 c-4.416,0-8-3.584-8-8s3.584-8,8-8s8,3.584,8,8S186.648,56,182.232,56z"/> <path d="M318.232,112c0,26.472,21.528,48,48,48s48-21.528,48-48s-21.528-48-48-48S318.232,85.528,318.232,112z M366.232,80 c17.648,0,32,14.352,32,32s-14.352,32-32,32s-32-14.352-32-32S348.584,80,366.232,80z"/> <path d="M366.232,136c13.232,0,24-10.768,24-24s-10.768-24-24-24s-24,10.768-24,24S353,136,366.232,136z M366.232,104 c4.416,0,8,3.584,8,8s-3.584,8-8,8c-4.416,0-8-3.584-8-8S361.816,104,366.232,104z"/> <path d="M310.232,16c17.648,0,32,14.352,32,32h16c0-26.472-21.528-48-48-48s-48,21.528-48,48h16 C278.232,30.352,292.584,16,310.232,16z"/> <path d="M310.232,24c-13.232,0-24,10.768-24,24s10.768,24,24,24s24-10.768,24-24S323.464,24,310.232,24z M310.232,56 c-4.416,0-8-3.584-8-8s3.584-8,8-8c4.416,0,8,3.584,8,8S314.648,56,310.232,56z"/> <path d="M190.232,120c0,30.872,25.128,56,56,56s56-25.128,56-56s-25.128-56-56-56S190.232,89.128,190.232,120z M246.232,80 c22.056,0,40,17.944,40,40c0,22.056-17.944,40-40,40c-22.056,0-40-17.944-40-40C206.232,97.944,224.176,80,246.232,80z"/> <path d="M246.232,144c13.232,0,24-10.768,24-24s-10.768-24-24-24s-24,10.768-24,24S233,144,246.232,144z M246.232,112 c4.416,0,8,3.584,8,8s-3.584,8-8,8c-4.416,0-8-3.584-8-8S241.816,112,246.232,112z"/> <rect x="238.232" y="312" width="16" height="16"/> </g> </g> </g> </g>
</svg>