<?xml version="1.0" encoding="UTF-8" standalone="no"?>
<svg
   fill="none"
   viewBox="0 0 128 128"
   version="1.1"
   id="svg1"
   xmlns="http://www.w3.org/2000/svg"
   xmlns:svg="http://www.w3.org/2000/svg">
  <defs
     id="defs1">
    <clipPath
       clipPathUnits="userSpaceOnUse"
       id="clipPath2">
      <path
         d="M 0,800 H 800 V 0 H 0 Z"
         transform="translate(-669.68512,-583.93051)"
         id="path2" />
    </clipPath>
  </defs>
  <style>
        path { fill: #000; }
        @media (prefers-color-scheme: dark) {
            path { fill: #FFF; }
        }
    </style>
  <path
     id="path1-6"
     d="m 0,0 c -16.182,15.45 -37.467,23.388 -59.832,22.33 -43.276,-2.02 -77.176,-38.303 -77.176,-82.597 v -246.904 l -84.784,100.773 h 43.063 c 12.315,0 22.295,9.981 22.295,22.295 0,12.315 -9.98,22.296 -22.295,22.296 h -68.661 l -0.006,296.816 c 0,20.11 16.36,36.47 36.465,36.47 20.109,0 36.469,-16.36 36.469,-36.47 0,-12.315 9.981,-22.295 22.296,-22.295 12.315,0 22.295,9.98 22.295,22.295 0,44.695 -36.365,81.06 -81.06,81.06 -44.695,0 -81.056,-36.365 -81.056,-81.06 l 0.005,-257.979 -115.615,137.418 c -6.031,7.168 -15.898,9.803 -24.699,6.593 -8.8,-3.209 -14.657,-11.579 -14.657,-20.945 v -308.034 c 0,-20.092 -15.55,-37.162 -34.663,-38.054 -10.107,-0.475 -19.687,3.096 -26.963,10.046 -7.29,6.954 -11.3,16.329 -11.3,26.397 0,12.315 -9.981,22.295 -22.296,22.295 -12.314,0 -22.295,-9.98 -22.295,-22.295 0,-22.374 8.914,-43.202 25.1,-58.652 15.236,-14.544 34.963,-22.426 55.917,-22.421 1.297,0 2.604,0.03 3.91,0.091 43.28,2.012 77.181,38.294 77.181,82.593 v 246.904 l 84.783,-100.773 h -43.062 c -12.315,0 -22.296,-9.981 -22.296,-22.296 0,-12.314 9.981,-22.295 22.296,-22.295 h 68.661 l 0.006,-296.472 c 0,-20.11 -16.36,-36.47 -36.465,-36.47 -20.11,0 -36.47,16.36 -36.47,36.47 0,12.315 -9.98,22.295 -22.295,22.295 -12.315,0 -22.296,-9.98 -22.296,-22.295 0,-44.696 36.366,-81.061 81.061,-81.061 44.695,0 81.056,36.365 81.056,81.061 l -0.005,257.635 115.614,-137.419 c 6.036,-7.167 15.912,-9.802 24.699,-6.592 8.801,3.209 14.658,11.578 14.658,20.945 v 308.034 c 0,20.092 15.55,37.166 34.662,38.059 10.125,0.431 19.687,-3.101 26.964,-10.046 7.285,-6.955 11.3,-16.334 11.3,-26.402 0,-12.315 9.981,-22.295 22.295,-22.295 12.315,0 22.296,9.98 22.296,22.295 C 25.1,-36.282 16.186,-15.45 0,0"
     transform="matrix(0.11875008,0,0,-0.11875008,96.025114,42.15821)"
     clip-path="url(#clipPath2)" />
</svg>
